<svg width="33" height="26" viewBox="0 0 33 26" fill="none" xmlns="http://www.w3.org/2000/svg">
<path fill-rule="evenodd" clip-rule="evenodd" d="M32.0747 2.24986C31.6435 6.79462 29.77 17.8271 28.8189 22.9181C28.4164 25.0743 27.621 25.7954 26.8543 25.8649C25.1845 26.0182 23.9171 24.7604 22.3 23.7015C19.7701 22.0436 18.3398 21.011 15.8842 19.3915C13.0452 17.5204 14.8851 16.4926 16.5023 14.8132C16.9263 14.3724 24.2813 7.68104 24.425 7.07492C24.4418 6.99825 24.461 6.71556 24.2909 6.56702C24.1208 6.41848 23.874 6.46879 23.6967 6.50952C23.4428 6.56702 19.4011 9.23829 11.5694 14.5233C10.4218 15.3115 9.38208 15.6949 8.45013 15.6757C7.42475 15.6541 5.45064 15.0959 3.98204 14.6168C2.18282 14.0322 0.750161 13.7208 0.87474 12.7289C0.939426 12.2114 1.65097 11.682 3.01176 11.1405C11.3921 7.48938 16.9814 5.08165 19.7773 3.91731C27.7623 0.596788 29.4202 0.0194088 30.5031 0.000242762C31.8591 -0.0189233 32.1849 1.0999 32.0747 2.24986Z" fill="white"/>
</svg>
