<svg width="195" height="154" viewBox="0 0 195 154" fill="none" xmlns="http://www.w3.org/2000/svg">
<path d="M26.6814 0.00684443C29.0616 0.00454025 31.4189 0.471358 33.6186 1.38063C35.8183 2.2899 37.8172 3.6238 39.5011 5.30605C41.185 6.9883 42.5208 8.98594 43.4322 11.1848C44.3436 13.3836 44.8127 15.7404 44.8127 18.1207V37.9003C44.8127 39.9344 44.8916 42.0211 45.0495 44.1428C45.1672 46.1353 45.6361 48.0914 46.4347 49.9206C47.2102 51.6516 48.4789 53.1154 50.082 54.1291C51.7479 55.2104 54.0859 55.7482 57.0961 55.7423C60.1063 55.7365 62.4443 55.1987 64.1102 54.1291C65.6998 53.0998 66.9645 51.6404 67.7574 49.9206C68.5829 48.0982 69.0673 46.1399 69.1866 44.1428C69.3444 42.0211 69.4233 39.9344 69.4233 37.9003V18.033C69.4222 15.6654 69.8876 13.3208 70.7931 11.1333C71.6986 8.94575 73.0263 6.95811 74.7004 5.284C76.3745 3.60989 78.3622 2.28213 80.5498 1.37664C82.7373 0.471154 85.0819 0.00569205 87.4494 0.00684443V40.3991C87.4494 51.2475 84.9682 59.1675 80.0058 64.1592C75.0433 69.1508 67.4038 71.6467 57.0873 71.6467C46.7942 71.6467 39.1518 69.1508 34.1601 64.1592C29.1684 59.1675 26.6726 51.2475 26.6726 40.3991V0.00684443H26.6814Z" fill="white"/>
<path d="M111.542 1.02351V7.02931C113.357 4.62419 115.736 2.70302 118.469 1.43559C121.095 0.430152 123.891 -0.0552281 126.702 0.0064728C129.633 -0.0668205 132.547 0.483041 135.25 1.6197C137.585 2.67067 139.653 4.23509 141.3 6.19638C142.628 7.74661 143.579 9.58309 144.079 11.5621C144.597 13.7714 144.844 16.0354 144.815 18.3044V91.0753C142.617 91.073 140.441 90.6374 138.411 89.7935C136.381 88.9496 134.537 87.7139 132.985 86.157C131.433 84.6001 130.204 82.7526 129.366 80.7201C128.528 78.6876 128.1 76.51 128.104 74.3117V24.5031C128.142 22.5935 127.972 20.6855 127.596 18.8129C127.334 17.5108 126.708 16.3098 125.79 15.3497C125.094 14.6385 124.241 14.1008 123.3 13.7803C122.343 13.4672 121.343 13.3103 120.336 13.3156C117.501 13.3156 115.33 14.1632 113.822 15.8582C112.314 17.5533 111.56 19.9731 111.56 23.1178V52.9714C111.559 55.1716 111.124 57.3499 110.28 59.3819C109.436 61.4138 108.2 63.2594 106.642 64.8132C105.084 66.3669 103.236 67.5983 101.201 68.4368C99.1673 69.2753 96.9878 69.7045 94.7876 69.6999V17.752C94.7887 15.5533 95.2231 13.3764 96.0659 11.3456C96.9086 9.31479 98.1432 7.46995 99.6991 5.91645C101.255 4.36295 103.102 3.13124 105.134 2.29169C107.166 1.45214 109.344 1.02121 111.542 1.02351Z" fill="white"/>
<path d="M155.073 9.43214C155.066 8.1787 155.317 6.93713 155.81 5.78483C156.779 3.51803 158.584 1.71224 160.851 0.743476C162.007 0.257591 163.249 0.00732422 164.503 0.00732422C165.757 0.00732422 166.999 0.257591 168.155 0.743476C170.421 1.71224 172.227 3.51803 173.196 5.78483C173.682 6.94096 173.932 8.18245 173.932 9.43653C173.932 10.6906 173.682 11.9321 173.196 13.0882C172.712 14.2065 172.022 15.2238 171.162 16.0867C170.299 16.9509 169.278 17.6414 168.155 18.1208C167 18.6125 165.758 18.866 164.503 18.866C163.248 18.866 162.006 18.6125 160.851 18.1208C159.728 17.6414 158.707 16.9509 157.844 16.0867C156.984 15.2238 156.294 14.2065 155.81 13.0882C155.316 11.933 155.065 10.6885 155.073 9.43214ZM172.915 40.5658V91.0495C170.716 91.0529 168.537 90.6225 166.504 89.7828C164.47 88.9431 162.623 87.7107 161.066 86.156C159.51 84.6013 158.276 82.755 157.434 80.7227C156.592 78.6904 156.159 76.512 156.161 74.3122V23.8373C158.36 23.8338 160.538 24.2639 162.57 25.1031C164.603 25.9422 166.45 27.1739 168.006 28.7276C169.563 30.2814 170.797 32.1267 171.64 34.158C172.482 36.1893 172.915 38.3668 172.915 40.5658Z" fill="#F44B00"/>
<path d="M68.0468 87.5414C68.0403 86.7781 68.1957 86.0221 68.5028 85.3232C69.0932 83.949 70.1884 82.8538 71.5626 82.2633C72.2573 81.9744 73.0022 81.8257 73.7545 81.8257C74.5069 81.8257 75.2518 81.9744 75.9464 82.2633C77.3206 82.8538 78.4159 83.949 79.0063 85.3232C79.3073 86.024 79.4625 86.7787 79.4625 87.5414C79.4625 88.3041 79.3073 89.0588 79.0063 89.7596C78.4186 91.1336 77.3221 92.227 75.9464 92.8107C75.2532 93.1054 74.5077 93.2573 73.7545 93.2573C73.0013 93.2573 72.2558 93.1054 71.5626 92.8107C70.187 92.227 69.0905 91.1336 68.5028 89.7596C68.1965 89.0605 68.0411 88.3046 68.0468 87.5414ZM78.8835 108.759V127.39C76.1885 127.39 73.6039 126.319 71.6982 124.414C69.7925 122.508 68.7219 119.923 68.7219 117.228V98.5886C70.0564 98.5886 71.3778 98.8514 72.6106 99.3621C73.8435 99.8727 74.9637 100.621 75.9073 101.565C76.8509 102.508 77.5994 103.629 78.1101 104.861C78.6207 106.094 78.8835 107.416 78.8835 108.75V108.759Z" fill="#F44B00"/>
<path d="M97.0147 90.9527V127.382C94.3273 127.37 91.7539 126.295 89.8577 124.39C87.9615 122.486 86.8969 119.908 86.897 117.22V80.791C89.5844 80.8026 92.1578 81.8783 94.054 83.7827C95.9502 85.6872 97.0148 88.2652 97.0147 90.9527Z" fill="white"/>
<path d="M122.484 98.8438H129.104C130.034 98.8438 130.926 99.2133 131.584 99.871C132.241 100.529 132.611 101.421 132.611 102.351C133.822 101.103 135.269 100.109 136.867 99.4238C138.465 98.739 140.183 98.378 141.922 98.3616C143.886 98.2893 145.833 98.753 147.554 99.7029C149.274 100.653 150.704 102.053 151.689 103.754C152.674 102.049 154.102 100.643 155.822 99.6844C157.541 98.7258 159.488 98.2506 161.456 98.309C162.754 98.2996 164.044 98.498 165.279 98.8964C166.466 99.2641 167.548 99.9104 168.435 100.781C169.352 101.71 170.052 102.83 170.487 104.061C171.024 105.631 171.279 107.285 171.241 108.944V127.637C168.546 127.637 165.961 126.566 164.055 124.66C162.15 122.755 161.079 120.17 161.079 117.475V113.433C161.101 112.227 160.998 111.023 160.772 109.838C160.63 109.059 160.332 108.317 159.896 107.655C159.551 107.172 159.072 106.801 158.519 106.586C157.978 106.397 157.409 106.303 156.836 106.305C153.574 106.305 151.946 108.681 151.952 113.433V122.56C151.95 123.907 151.413 125.198 150.46 126.15C149.506 127.102 148.214 127.637 146.867 127.637C145.521 127.637 144.229 127.102 143.277 126.15C142.325 125.198 141.791 123.906 141.791 122.56V113.433C141.809 112.22 141.715 111.008 141.51 109.812C141.378 109.012 141.102 108.242 140.695 107.541C140.379 107.014 139.894 106.609 139.318 106.393C138.687 106.174 138.022 106.07 137.354 106.086C136.758 106.084 136.166 106.179 135.601 106.366C135.011 106.575 134.495 106.953 134.119 107.454C133.627 108.122 133.28 108.887 133.102 109.698C132.836 110.925 132.715 112.178 132.742 113.433V117.475C132.742 120.17 131.672 122.755 129.766 124.66C127.86 126.566 125.276 127.637 122.581 127.637L122.484 98.8438Z" fill="white"/>
<path d="M116.128 121.604C116.133 122.366 115.98 123.121 115.681 123.822C115.382 124.5 114.964 125.117 114.445 125.646C113.919 126.165 113.301 126.582 112.621 126.873C111.92 127.174 111.166 127.33 110.403 127.33C109.64 127.33 108.886 127.174 108.185 126.873C107.506 126.582 106.887 126.165 106.361 125.646C105.836 125.123 105.416 124.504 105.125 123.822C104.83 123.12 104.678 122.366 104.678 121.604C104.678 120.842 104.83 120.088 105.125 119.386C105.414 118.703 105.834 118.084 106.361 117.562C106.884 117.037 107.503 116.617 108.185 116.326C108.887 116.031 109.641 115.879 110.403 115.879C111.165 115.879 111.919 116.031 112.621 116.326C113.303 116.617 113.922 117.037 114.445 117.562C114.966 118.088 115.385 118.707 115.681 119.386C115.981 120.087 116.133 120.842 116.128 121.604ZM105.309 100.386V81.7466C106.643 81.7489 107.964 82.014 109.196 82.5268C110.428 83.0396 111.547 83.79 112.489 84.7352C113.431 85.6805 114.178 86.802 114.686 88.0357C115.195 89.2694 115.455 90.5913 115.453 91.9257V110.566C114.119 110.563 112.798 110.298 111.566 109.785C110.334 109.273 109.215 108.522 108.273 107.577C107.331 106.632 106.584 105.51 106.076 104.276C105.567 103.043 105.307 101.721 105.309 100.386Z" fill="#F44B00"/>
<path d="M47.943 97.0461C45.8774 97.0425 43.8319 97.4508 41.926 98.2472C40.0201 99.0436 38.2922 100.212 36.8432 101.684V80.791C34.1482 80.791 31.5636 81.8616 29.6579 83.7673C27.7523 85.673 26.6816 88.2576 26.6816 90.9527V127.382C28.497 127.378 30.2782 126.889 31.8401 125.963C33.4021 125.038 34.6876 123.712 35.5632 122.121C37.1787 124.225 39.3038 125.883 41.7379 126.937C44.1719 127.992 46.8346 128.409 49.4745 128.148C52.1144 127.888 54.6442 126.959 56.8252 125.449C59.0062 123.939 60.7663 121.898 61.9393 119.518C63.1123 117.139 63.6595 114.5 63.5292 111.851C63.3989 109.201 62.5954 106.629 61.1945 104.376C59.7937 102.123 57.8418 100.265 55.5232 98.9763C53.2045 97.6876 50.5957 97.0112 47.943 97.011V97.0461Z" fill="white"/>
<path d="M47.9426 121.129C52.6202 121.129 56.4121 117.337 56.4121 112.66C56.4121 107.982 52.6202 104.19 47.9426 104.19C43.265 104.19 39.4731 107.982 39.4731 112.66C39.4731 117.337 43.265 121.129 47.9426 121.129Z" fill="#191919"/>
<path d="M2.45624 149.792C1.70663 149.354 1.08651 148.724 0.658897 147.968C0.2167 147.188 -0.0102356 146.305 0.00132926 145.408V145.136C-0.0194832 144.218 0.204428 143.31 0.650121 142.506C0.977268 141.936 1.41354 141.437 1.93401 141.036C2.45447 140.635 3.04892 140.34 3.68329 140.169C4.31767 139.998 4.97951 139.954 5.63101 140.039C6.2825 140.124 6.91083 140.337 7.48004 140.665C8.21983 141.109 8.8257 141.746 9.23356 142.506C9.68191 143.309 9.90884 144.217 9.89112 145.136V145.408C9.91419 146.326 9.69336 147.234 9.25111 148.039C8.83767 148.772 8.23123 149.379 7.49759 149.792C6.73386 150.235 5.86414 150.462 4.9813 150.45C4.09639 150.457 3.22532 150.23 2.45624 149.792ZM7.04166 149.082C7.6608 148.722 8.16775 148.197 8.50589 147.565C8.87175 146.906 9.05912 146.162 9.04947 145.408V145.136C9.05802 144.371 8.8709 143.617 8.50589 142.945C8.15655 142.311 7.64522 141.781 7.02416 141.41C6.39365 141.034 5.67147 140.84 4.93748 140.849C4.21163 140.839 3.49757 141.034 2.87707 141.41C2.25587 141.786 1.74714 142.322 1.40412 142.962C1.04063 143.628 0.856353 144.378 0.86931 145.136V145.408C0.856577 146.162 1.04093 146.905 1.40412 147.565C1.74833 148.195 2.25751 148.719 2.87707 149.082C3.51003 149.451 4.23109 149.642 4.96375 149.634C5.69131 149.651 6.40965 149.469 7.04166 149.108V149.082Z" fill="white"/>
<path d="M12.5128 149.449C11.9146 148.642 11.6058 147.657 11.6361 146.652C11.6361 146.547 11.6361 146.381 11.6361 146.161C11.6352 145.296 11.7174 144.433 11.8816 143.584C11.9873 142.874 12.2509 142.197 12.6531 141.602C12.9176 141.24 13.2589 140.941 13.6527 140.726C14.0487 140.504 14.4736 140.339 14.9152 140.235C15.3623 140.129 15.9585 140.007 16.6687 139.875C16.8879 139.875 17.2035 139.796 17.6331 139.717L17.8085 140.524L16.73 140.717C15.9602 140.823 15.2045 141.014 14.4768 141.287C13.935 141.497 13.4743 141.875 13.1617 142.365C12.7897 143.017 12.5737 143.746 12.5304 144.496C12.8014 144.096 13.154 143.758 13.5649 143.505C14.0137 143.272 14.5153 143.16 15.0204 143.18C15.5573 143.171 16.0849 143.321 16.5372 143.61C17.0093 143.925 17.3879 144.361 17.6331 144.873C17.9137 145.461 18.0519 146.106 18.0364 146.758C18.041 147.378 17.9186 147.993 17.6769 148.564C17.4506 149.101 17.0843 149.567 16.6161 149.914C16.1407 150.253 15.5692 150.431 14.9853 150.422C14.526 150.463 14.0637 150.395 13.6347 150.227C13.2057 150.058 12.8216 149.792 12.5128 149.449ZM16.1514 149.186C16.4985 148.904 16.7647 148.535 16.9229 148.117C17.0985 147.67 17.1878 147.194 17.186 146.714C17.1872 146.255 17.101 145.799 16.9317 145.372C16.7807 144.979 16.5336 144.629 16.2128 144.355C15.88 144.096 15.4682 143.96 15.0467 143.97C14.4863 143.965 13.9404 144.147 13.4948 144.487C13.033 144.826 12.6944 145.306 12.5304 145.855C12.4844 145.996 12.4608 146.144 12.4602 146.293C12.4042 147.155 12.5926 148.015 13.0038 148.774C13.2275 149.066 13.5225 149.295 13.8603 149.439C14.1982 149.583 14.5675 149.638 14.9327 149.598C15.3751 149.611 15.8075 149.465 16.1514 149.186Z" fill="white"/>
<path d="M24.4369 143.348C24.9073 143.689 25.2743 144.153 25.4978 144.689C25.7413 145.284 25.8635 145.922 25.8573 146.565C25.8709 147.25 25.7237 147.929 25.4277 148.547C25.1609 149.103 24.7373 149.569 24.2089 149.888C23.6323 150.224 22.9732 150.391 22.3064 150.37C22.0697 150.37 21.491 150.309 20.5529 150.186V154H19.7287V145.119C19.7543 144.809 19.7128 144.498 19.6068 144.205C19.5009 143.913 19.3331 143.648 19.115 143.427L19.6936 142.848C19.8776 142.983 20.0402 143.146 20.1759 143.33C20.3298 143.528 20.443 143.755 20.5091 143.996C20.7259 143.615 21.0477 143.304 21.4363 143.1C21.8249 142.897 22.2639 142.809 22.701 142.848C23.3181 142.825 23.9264 143 24.4369 143.348ZM24.2879 148.801C24.7762 148.192 25.0228 147.424 24.9805 146.644C25.0106 145.882 24.8055 145.129 24.3931 144.487C24.2203 144.213 23.9792 143.988 23.6934 143.834C23.4075 143.68 23.0867 143.603 22.7623 143.611C22.2246 143.605 21.7014 143.785 21.2806 144.119C21.0742 144.273 20.9044 144.471 20.7832 144.698C20.662 144.926 20.5923 145.177 20.5792 145.434V149.432C21.4735 149.52 22.0258 149.564 22.2362 149.564C22.6133 149.596 22.9927 149.544 23.3473 149.412C23.702 149.28 24.0232 149.071 24.2879 148.801Z" fill="white"/>
<path d="M32.108 149.862C31.974 149.648 31.868 149.418 31.7924 149.178C31.5994 149.555 31.2927 149.862 30.9156 150.055C30.4862 150.27 30.0103 150.375 29.5303 150.361C28.8649 150.399 28.21 150.183 27.6979 149.757C27.4673 149.549 27.2856 149.292 27.1659 149.006C27.0461 148.719 26.9913 148.41 27.0052 148.099C26.9825 147.766 27.0417 147.431 27.1777 147.126C27.3137 146.82 27.5224 146.552 27.7856 146.346C28.4311 145.905 29.2057 145.692 29.9862 145.741H31.6608V145.215C31.6944 144.754 31.5605 144.296 31.2838 143.926C31.131 143.776 30.9478 143.661 30.7466 143.589C30.5454 143.516 30.3309 143.488 30.1177 143.505C29.7114 143.509 29.3085 143.58 28.9253 143.716C28.5366 143.851 28.1702 144.043 27.8382 144.286L27.4436 143.646C27.8121 143.342 28.2344 143.11 28.6886 142.962C29.1533 142.798 29.6426 142.715 30.1353 142.716C30.7764 142.681 31.4059 142.898 31.8888 143.321C32.1033 143.557 32.2676 143.834 32.3716 144.136C32.4756 144.437 32.5172 144.757 32.4937 145.075V148.108C32.4477 148.745 32.6522 149.374 33.0636 149.862L32.4937 150.344C32.3394 150.206 32.209 150.043 32.108 149.862ZM31.0997 149.046C31.2938 148.872 31.4466 148.656 31.5467 148.415C31.6468 148.174 31.6918 147.913 31.6784 147.652V146.565H30.1966C29.5903 146.522 28.9838 146.647 28.4431 146.925C28.2583 147.054 28.1108 147.23 28.0154 147.435C27.92 147.64 27.8801 147.866 27.8995 148.091C27.886 148.297 27.9183 148.504 27.9941 148.696C28.0698 148.889 28.1873 149.062 28.3379 149.204C28.6885 149.48 29.1286 149.618 29.5741 149.59C30.1341 149.615 30.6816 149.42 31.0997 149.046Z" fill="white"/>
<path d="M35.2298 150.212C34.7694 150.072 34.3427 149.84 33.9761 149.528L34.4933 148.993C34.7707 149.204 35.0863 149.359 35.4227 149.449C35.837 149.579 36.2687 149.644 36.7028 149.642C37.1318 149.652 37.5584 149.574 37.9565 149.414C38.2952 149.281 38.5963 149.067 38.8333 148.791C39.0379 148.545 39.1496 148.235 39.1489 147.915C39.1498 147.722 39.1105 147.531 39.0335 147.355C38.9565 147.178 38.8436 147.019 38.7018 146.889C38.5465 146.742 38.3633 146.627 38.163 146.552C37.9628 146.477 37.7495 146.442 37.5357 146.451H35.7822V145.714H37.4919C37.8089 145.723 38.1191 145.621 38.3686 145.425C38.482 145.344 38.5744 145.238 38.6385 145.114C38.7025 144.991 38.7362 144.854 38.7369 144.715C38.7346 144.515 38.6675 144.322 38.5457 144.163C38.4239 144.005 38.2541 143.891 38.0617 143.838C37.5967 143.65 37.0989 143.558 36.5976 143.566C35.9285 143.562 35.263 143.663 34.6249 143.864L34.4495 143.128C35.2076 142.878 36.0009 142.75 36.7992 142.751C37.3182 142.735 37.8347 142.828 38.316 143.022C38.6943 143.17 39.0268 143.415 39.2804 143.733C39.4877 143.998 39.6017 144.325 39.6048 144.662C39.6044 144.936 39.5319 145.205 39.3944 145.442C39.2715 145.672 39.09 145.866 38.8683 146.003C39.2176 146.21 39.517 146.492 39.7451 146.828C39.9271 147.149 40.0237 147.511 40.0257 147.88C40.0477 148.38 39.8891 148.872 39.5786 149.265C39.2577 149.661 38.837 149.963 38.3599 150.142C37.8461 150.343 37.2984 150.444 36.7466 150.44C36.2321 150.445 35.72 150.368 35.2298 150.212Z" fill="white"/>
<path d="M42.9891 149.897C42.4523 149.575 42.0153 149.111 41.7266 148.556C41.4292 147.948 41.2747 147.281 41.2747 146.605C41.2747 145.929 41.4292 145.261 41.7266 144.654C42.0256 144.093 42.4716 143.624 43.0167 143.296C43.5619 142.969 44.1857 142.796 44.8216 142.796C45.4574 142.796 46.0812 142.969 46.6264 143.296C47.1715 143.624 47.6174 144.093 47.9165 144.654C48.2177 145.26 48.3744 145.928 48.3744 146.605C48.3744 147.282 48.2177 147.949 47.9165 148.556C47.6223 149.12 47.1753 149.59 46.6264 149.913C46.0776 150.235 45.4491 150.397 44.8128 150.379C44.1723 150.388 43.5415 150.221 42.9891 149.897ZM46.7767 148.757C47.2853 148.157 47.5484 147.386 47.5132 146.6C47.523 146.059 47.4091 145.522 47.18 145.031C46.9665 144.6 46.639 144.237 46.2331 143.979C45.8127 143.726 45.3299 143.595 44.8391 143.602C44.3428 143.595 43.8543 143.726 43.4275 143.979C43.0192 144.241 42.6915 144.611 42.4806 145.049C42.2543 145.537 42.1405 146.071 42.1475 146.609C42.1385 147.145 42.2524 147.676 42.4806 148.161C42.6929 148.602 43.0288 148.972 43.4475 149.226C43.8662 149.48 44.3498 149.606 44.8391 149.59C45.2036 149.603 45.5665 149.536 45.9016 149.392C46.2366 149.247 46.5355 149.031 46.7767 148.757Z" fill="white"/>
<path d="M53.2292 142.909C53.8337 142.867 54.4316 143.055 54.9039 143.435C55.0875 143.595 55.2342 143.793 55.3341 144.016C55.434 144.238 55.4846 144.48 55.4825 144.724C55.4831 144.998 55.4264 145.27 55.3159 145.521C55.2023 145.784 55.0316 146.017 54.8162 146.205C55.1612 146.392 55.4446 146.676 55.6316 147.021C55.8253 147.366 55.9251 147.756 55.9209 148.152C55.9271 148.415 55.8807 148.677 55.7844 148.923C55.688 149.168 55.5437 149.392 55.3598 149.581C55.1483 149.788 54.8973 149.951 54.6216 150.059C54.346 150.168 54.0514 150.22 53.7553 150.212H50.2483V142.9L53.2292 142.909ZM54.2989 145.539C54.5099 145.32 54.6264 145.027 54.6233 144.724C54.6318 144.579 54.6042 144.434 54.543 144.302C54.4818 144.171 54.3889 144.056 54.2726 143.97C53.9917 143.77 53.652 143.672 53.3082 143.689H51.0373V145.96H53.4221C53.7565 145.933 54.0691 145.783 54.2989 145.539ZM54.6847 149.099C54.8131 148.978 54.9134 148.831 54.9786 148.667C55.0437 148.503 55.0721 148.327 55.0617 148.152C55.0676 147.783 54.9399 147.425 54.7022 147.143C54.576 146.999 54.4194 146.884 54.2436 146.806C54.0678 146.729 53.8771 146.691 53.6852 146.696H51.0549V149.414H53.6852C54.0462 149.438 54.4031 149.326 54.6847 149.099Z" fill="white"/>
<path d="M62.1462 149.862C62.0122 149.648 61.9061 149.418 61.8305 149.178C61.6362 149.554 61.3298 149.86 60.9538 150.055C60.5209 150.269 60.0424 150.374 59.5597 150.361C58.8943 150.399 58.2394 150.183 57.7273 149.757C57.4967 149.549 57.3151 149.292 57.1953 149.006C57.0756 148.719 57.0207 148.41 57.0347 148.099C57.0142 147.766 57.0744 147.432 57.2103 147.127C57.3461 146.822 57.5535 146.554 57.815 146.346C58.4606 145.905 59.2352 145.692 60.0157 145.741H61.699V145.215C61.7375 144.753 61.6032 144.294 61.322 143.926C61.1692 143.776 60.986 143.661 60.7848 143.589C60.5836 143.516 60.3691 143.488 60.1559 143.505C59.7524 143.508 59.3522 143.579 58.9723 143.716C58.5801 143.849 58.2105 144.041 57.8764 144.286L57.4906 143.646C57.8547 143.34 58.2745 143.108 58.7268 142.962C59.1915 142.798 59.6808 142.715 60.1735 142.716C60.8146 142.681 61.4441 142.898 61.927 143.321C62.1415 143.557 62.3058 143.834 62.4098 144.136C62.5138 144.437 62.5554 144.757 62.532 145.075V148.108C62.4859 148.745 62.6904 149.374 63.1018 149.862L62.532 150.344C62.3797 150.204 62.2496 150.041 62.1462 149.862ZM61.1379 149.046C61.3321 148.872 61.4848 148.656 61.5849 148.415C61.685 148.174 61.73 147.913 61.7166 147.652V146.565H60.2349C59.6285 146.522 59.022 146.647 58.4813 146.925C58.2965 147.054 58.149 147.23 58.0536 147.435C57.9582 147.64 57.9182 147.866 57.9377 148.091C57.9241 148.297 57.9564 148.504 58.0322 148.696C58.108 148.889 58.2254 149.062 58.3761 149.204C58.7267 149.48 59.1668 149.618 59.6123 149.59C60.1723 149.615 60.7198 149.42 61.1379 149.046Z" fill="white"/>
<path d="M66.7312 143.76H63.9607V142.962H70.3785V143.76H67.608V150.23H66.7312V143.76Z" fill="white"/>
<path d="M72.6408 148.766C72.8458 149.076 73.1334 149.323 73.4712 149.478C73.809 149.633 74.1835 149.69 74.5521 149.643C74.9271 149.649 75.3004 149.593 75.6569 149.477C76.0724 149.331 76.4768 149.155 76.8668 148.95L77.2438 149.555C76.8472 149.825 76.4129 150.035 75.955 150.178C75.4856 150.334 74.9942 150.414 74.4995 150.415C74.0553 150.439 73.6111 150.364 73.1999 150.194C72.7886 150.024 72.4208 149.764 72.1236 149.433C71.5197 148.713 71.2069 147.794 71.2468 146.855C71.2389 146.182 71.3671 145.514 71.6238 144.891C71.8539 144.31 72.239 143.804 72.7372 143.427C73.2438 143.052 73.861 142.858 74.4908 142.875C75.0216 142.867 75.5451 143 76.0076 143.26C76.4532 143.513 76.818 143.887 77.0597 144.339C77.3212 144.817 77.4541 145.355 77.4454 145.899C77.4454 146.048 77.4454 146.189 77.4454 146.311C77.4454 146.434 77.4454 146.539 77.4454 146.627V146.925H72.1849C72.1813 147.567 72.338 148.2 72.6408 148.766ZM76.6476 146.136C76.6537 146.04 76.6537 145.943 76.6476 145.847C76.6538 145.437 76.5541 145.032 76.3583 144.672C76.1682 144.34 75.8966 144.063 75.5692 143.865C75.2398 143.672 74.864 143.572 74.482 143.576C74.195 143.572 73.9104 143.629 73.6473 143.744C73.3842 143.859 73.1486 144.029 72.9564 144.242C72.4887 144.767 72.2109 145.434 72.1674 146.136H76.6476Z" fill="white"/>
<path d="M78.2434 149.906L78.8834 149.415C78.9315 149.478 78.9938 149.53 79.0654 149.565C79.137 149.6 79.2158 149.618 79.2955 149.616C79.3671 149.621 79.4387 149.608 79.5043 149.579C79.57 149.55 79.6277 149.506 79.6725 149.45C79.7815 149.289 79.8644 149.111 79.918 148.924C80.1331 148.123 80.2509 147.298 80.2687 146.469C80.3213 145.408 80.3476 144.233 80.3476 142.962H85.1172V150.239H84.2404V143.742H81.163C81.163 144.751 81.1192 145.785 81.049 146.837C81.0227 147.628 80.905 148.414 80.6983 149.178C80.6019 149.527 80.4247 149.848 80.1811 150.116C79.9375 150.325 79.6247 150.434 79.3043 150.423C79.0984 150.432 78.8934 150.39 78.7081 150.299C78.5228 150.209 78.3631 150.074 78.2434 149.906Z" fill="white"/>
<path d="M88.282 142.962V145.54H90.8071C91.2399 145.539 91.6645 145.657 92.0345 145.882C92.3761 146.097 92.6544 146.4 92.8412 146.758C93.0364 147.135 93.1357 147.553 93.1305 147.977C93.1537 148.301 93.1053 148.626 92.9886 148.929C92.8719 149.232 92.6899 149.506 92.4554 149.73C91.9466 150.161 91.2875 150.373 90.623 150.318L87.4141 150.274V143.006L88.282 142.962ZM91.7891 149.029C91.9285 148.896 92.0381 148.735 92.1107 148.557C92.1832 148.379 92.217 148.187 92.2099 147.995C92.2211 147.563 92.0675 147.142 91.7803 146.82C91.6152 146.651 91.4148 146.521 91.1934 146.439C90.9721 146.357 90.7353 146.326 90.5002 146.346H88.2469V149.467H90.5002C90.9809 149.492 91.4534 149.336 91.8241 149.029H91.7891Z" fill="white"/>
<path d="M100.627 150.23H99.7501V147.047H95.7521V150.23H94.8754V144.768C94.8756 144.244 94.6783 143.74 94.323 143.356L94.9017 142.795C95.1702 143.043 95.3877 143.34 95.5417 143.672C95.6817 144.001 95.7504 144.357 95.7434 144.715V146.284H99.7852V142.997H100.662L100.627 150.23Z" fill="white"/>
<path d="M107.404 149.862C107.27 149.649 107.164 149.419 107.088 149.178C106.896 149.556 106.589 149.863 106.211 150.055C105.782 150.269 105.306 150.375 104.826 150.362C104.159 150.396 103.502 150.18 102.985 149.757C102.757 149.548 102.577 149.291 102.459 149.004C102.341 148.718 102.287 148.409 102.301 148.1C102.279 147.767 102.337 147.434 102.472 147.129C102.606 146.823 102.812 146.555 103.073 146.347C103.718 145.905 104.493 145.692 105.273 145.742H106.957V145.215C106.995 144.754 106.861 144.295 106.58 143.927C106.428 143.778 106.246 143.663 106.047 143.59C105.847 143.518 105.634 143.489 105.422 143.506C105.016 143.508 104.613 143.579 104.23 143.716C103.84 143.847 103.473 144.04 103.143 144.286L102.748 143.646C103.115 143.344 103.534 143.112 103.984 142.962C104.449 142.799 104.938 142.716 105.431 142.717C106.073 142.678 106.703 142.896 107.185 143.322C107.401 143.557 107.567 143.834 107.672 144.135C107.778 144.437 107.821 144.757 107.798 145.075V148.109C107.749 148.744 107.95 149.374 108.359 149.862L107.798 150.345C107.643 150.204 107.51 150.042 107.404 149.862ZM106.404 149.047C106.593 148.869 106.742 148.652 106.841 148.412C106.939 148.171 106.984 147.912 106.974 147.653V146.566H105.492C104.886 146.523 104.28 146.647 103.739 146.925C103.556 147.056 103.41 147.232 103.316 147.437C103.222 147.642 103.184 147.867 103.204 148.091C103.189 148.298 103.22 148.505 103.296 148.698C103.372 148.891 103.49 149.064 103.642 149.205C103.99 149.48 104.427 149.617 104.87 149.59C105.432 149.613 105.982 149.418 106.404 149.047Z" fill="white"/>
<path d="M109.693 150.37C109.581 150.353 109.474 150.314 109.377 150.256L109.842 149.59C109.875 149.612 109.912 149.627 109.952 149.635C109.991 149.642 110.031 149.642 110.07 149.633C110.308 149.521 110.513 149.348 110.666 149.134C110.884 148.899 111.088 148.653 111.28 148.397C111.535 148.067 111.807 147.751 112.095 147.45C112.203 147.354 112.333 147.285 112.472 147.249H111.955C111.678 147.248 111.403 147.204 111.14 147.117C110.862 147.019 110.608 146.864 110.394 146.661C110.17 146.469 109.99 146.229 109.868 145.96C109.749 145.683 109.69 145.384 109.693 145.083C109.686 144.571 109.881 144.076 110.237 143.707C110.701 143.232 111.327 142.95 111.99 142.917H115.41V150.186H114.533V147.161C114.197 147.179 113.868 147.256 113.56 147.389C113.222 147.519 112.921 147.73 112.683 148.003L112.358 148.424C112.244 148.573 112.043 148.818 111.745 149.178C111.447 149.537 111.254 149.774 111.14 149.888C110.98 150.093 110.763 150.246 110.517 150.328C110.271 150.411 110.005 150.419 109.754 150.352L109.693 150.37ZM111.561 146.372C111.994 146.455 112.435 146.487 112.876 146.468H114.489V143.777H112.849C112.526 143.75 112.2 143.75 111.876 143.777C111.674 143.804 111.478 143.866 111.298 143.961C111.08 144.064 110.896 144.226 110.767 144.43C110.638 144.633 110.57 144.869 110.57 145.109C110.569 145.37 110.656 145.623 110.815 145.828C110.996 146.099 111.271 146.293 111.587 146.372H111.561Z" fill="white"/>
<path d="M127.5 150.23H126.623V143.777H122.625V150.23H121.748V142.962H127.482L127.5 150.23Z" fill="white"/>
<path d="M128.841 149.906L129.481 149.415C129.527 149.478 129.588 149.53 129.658 149.565C129.728 149.6 129.806 149.618 129.884 149.616C129.956 149.622 130.028 149.609 130.093 149.58C130.159 149.551 130.217 149.506 130.261 149.45C130.37 149.289 130.453 149.111 130.507 148.924C130.725 148.123 130.846 147.299 130.866 146.469C130.919 145.408 130.945 144.233 130.945 142.962H135.706V150.239H134.829V143.742H131.752C131.752 144.751 131.699 145.785 131.629 146.837C131.605 147.628 131.49 148.413 131.287 149.178C131.184 149.526 131.004 149.847 130.761 150.116C130.518 150.326 130.205 150.436 129.884 150.423C129.681 150.431 129.479 150.388 129.297 150.297C129.114 150.207 128.958 150.072 128.841 149.906Z" fill="white"/>
<path d="M142.475 149.861C142.341 149.647 142.235 149.418 142.159 149.177C141.966 149.554 141.659 149.861 141.282 150.054C140.853 150.269 140.377 150.374 139.897 150.361C139.231 150.399 138.577 150.182 138.064 149.756C137.834 149.548 137.652 149.291 137.532 149.005C137.413 148.718 137.358 148.409 137.372 148.099C137.35 147.766 137.408 147.433 137.542 147.127C137.677 146.822 137.883 146.554 138.143 146.345C138.789 145.904 139.564 145.691 140.344 145.74H142.036V145.214C142.072 144.752 141.935 144.292 141.65 143.925C141.5 143.775 141.318 143.66 141.118 143.587C140.918 143.515 140.705 143.486 140.493 143.505C140.087 143.508 139.684 143.58 139.301 143.715C138.911 143.848 138.544 144.04 138.214 144.285L137.819 143.645C138.187 143.341 138.61 143.109 139.064 142.961C139.528 142.796 140.018 142.713 140.511 142.715C140.828 142.696 141.147 142.739 141.448 142.843C141.749 142.947 142.026 143.109 142.264 143.32C142.482 143.554 142.649 143.831 142.755 144.133C142.86 144.435 142.902 144.755 142.878 145.074V148.108C142.832 148.744 143.036 149.373 143.448 149.861L142.878 150.343C142.717 150.206 142.581 150.043 142.475 149.861ZM141.466 149.046C141.66 148.871 141.813 148.655 141.913 148.414C142.013 148.173 142.058 147.912 142.045 147.652V146.564H140.563C139.957 146.523 139.351 146.648 138.81 146.924C138.628 147.056 138.483 147.233 138.389 147.437C138.296 147.641 138.256 147.866 138.275 148.09C138.261 148.296 138.294 148.503 138.369 148.696C138.445 148.888 138.563 149.062 138.713 149.203C139.064 149.48 139.504 149.617 139.949 149.589C140.506 149.612 141.05 149.417 141.466 149.046Z" fill="white"/>
<path d="M147.069 143.76H144.29V142.962H150.716V143.76H147.937V150.23H147.06L147.069 143.76Z" fill="white"/>
<path d="M153.346 149.862C152.789 149.526 152.328 149.051 152.008 148.484C151.688 147.918 151.52 147.278 151.52 146.627C151.52 145.976 151.688 145.336 152.008 144.769C152.328 144.202 152.789 143.728 153.346 143.392C154.014 143.003 154.766 142.783 155.538 142.752V140.393H156.415V142.778C157.145 142.806 157.857 143.007 158.493 143.365C159.083 143.688 159.579 144.16 159.931 144.733C160.282 145.305 160.464 145.965 160.457 146.636C160.456 147.293 160.277 147.938 159.94 148.503C159.591 149.095 159.095 149.587 158.502 149.932C157.875 150.306 157.162 150.511 156.433 150.528V152.852H155.556V150.546C154.774 150.504 154.015 150.269 153.346 149.862ZM153.82 144.102C153.373 144.372 153.007 144.756 152.759 145.215C152.52 145.647 152.396 146.133 152.4 146.627C152.396 147.118 152.52 147.601 152.759 148.03C153.01 148.484 153.376 148.865 153.82 149.134C154.355 149.444 154.956 149.624 155.573 149.66V143.523C154.95 143.567 154.347 143.766 153.82 144.102ZM158.134 149.126C158.584 148.85 158.955 148.464 159.212 148.003C159.45 147.578 159.574 147.097 159.571 146.609C159.574 146.119 159.45 145.635 159.212 145.206C158.952 144.753 158.581 144.373 158.134 144.102C157.602 143.781 157 143.594 156.38 143.558V149.695C157.001 149.643 157.601 149.448 158.134 149.126Z" fill="white"/>
<path d="M163.377 149.897C162.838 149.578 162.4 149.113 162.114 148.556C161.817 147.948 161.662 147.281 161.662 146.605C161.662 145.929 161.817 145.261 162.114 144.654C162.413 144.093 162.859 143.624 163.404 143.296C163.949 142.969 164.573 142.796 165.209 142.796C165.845 142.796 166.469 142.969 167.014 143.296C167.559 143.624 168.005 144.093 168.304 144.654C168.605 145.26 168.762 145.928 168.762 146.605C168.762 147.282 168.605 147.949 168.304 148.556C168.013 149.109 167.576 149.573 167.041 149.897C166.484 150.224 165.847 150.391 165.2 150.379C164.56 150.388 163.929 150.221 163.377 149.897ZM167.164 148.757C167.673 148.157 167.936 147.386 167.901 146.6C167.912 146.058 167.795 145.52 167.559 145.031C167.351 144.599 167.026 144.234 166.621 143.979C166.194 143.732 165.71 143.602 165.218 143.602C164.725 143.602 164.241 143.732 163.815 143.979C163.407 144.241 163.079 144.611 162.868 145.049C162.642 145.537 162.528 146.071 162.535 146.609C162.526 147.145 162.64 147.676 162.868 148.161C163.08 148.602 163.416 148.972 163.835 149.226C164.254 149.48 164.737 149.606 165.227 149.59C165.591 149.603 165.954 149.535 166.289 149.391C166.624 149.247 166.923 149.03 167.164 148.757Z" fill="white"/>
<path d="M175.221 143.348C175.694 143.686 176.062 144.151 176.282 144.689C176.53 145.283 176.652 145.922 176.642 146.565C176.655 147.249 176.511 147.927 176.221 148.547C175.954 149.103 175.531 149.569 175.002 149.888C174.425 150.223 173.766 150.39 173.1 150.37C172.854 150.37 172.284 150.309 171.346 150.186V154H170.469V145.119C170.497 144.81 170.457 144.498 170.352 144.206C170.248 143.914 170.082 143.648 169.865 143.426L170.443 142.848C170.627 142.983 170.79 143.146 170.925 143.33C171.076 143.53 171.189 143.756 171.259 143.996C171.474 143.614 171.796 143.303 172.185 143.099C172.574 142.895 173.013 142.808 173.45 142.848C174.08 142.814 174.703 142.99 175.221 143.348ZM175.081 148.801C175.566 148.19 175.812 147.423 175.774 146.644C175.799 145.883 175.595 145.131 175.186 144.487C175.013 144.211 174.77 143.985 174.483 143.832C174.195 143.678 173.873 143.602 173.547 143.611C173.012 143.603 172.491 143.783 172.074 144.119C171.868 144.273 171.698 144.471 171.577 144.698C171.455 144.926 171.386 145.177 171.372 145.434V149.432C172.255 149.52 172.807 149.564 173.03 149.564C173.406 149.591 173.785 149.538 174.139 149.406C174.493 149.274 174.814 149.068 175.081 148.801Z" fill="white"/>
<path d="M178.869 142.979H179.745L182.49 148.818L185.251 142.979H186.128L187.005 150.229H186.128L185.479 144.416L182.849 149.879H182.121L179.553 144.416L178.869 150.229H177.992L178.869 142.979Z" fill="white"/>
<path d="M193.282 149.862C193.148 149.648 193.042 149.418 192.967 149.178C192.774 149.555 192.467 149.862 192.09 150.055C191.66 150.27 191.185 150.375 190.705 150.361C190.039 150.399 189.384 150.183 188.872 149.757C188.642 149.549 188.46 149.292 188.34 149.006C188.22 148.719 188.166 148.41 188.18 148.099C188.157 147.766 188.216 147.431 188.352 147.126C188.488 146.82 188.697 146.552 188.96 146.346C189.605 145.905 190.38 145.692 191.16 145.741H192.844V145.215C192.882 144.753 192.748 144.294 192.467 143.926C192.314 143.776 192.131 143.661 191.93 143.589C191.728 143.516 191.514 143.488 191.301 143.505C190.894 143.509 190.492 143.58 190.108 143.716C189.72 143.851 189.353 144.043 189.021 144.286L188.6 143.654C188.969 143.35 189.391 143.118 189.845 142.97C190.31 142.807 190.799 142.724 191.292 142.725C191.933 142.69 192.563 142.907 193.046 143.33C193.26 143.566 193.424 143.843 193.528 144.144C193.632 144.446 193.674 144.765 193.651 145.083V148.117C193.604 148.753 193.809 149.383 194.22 149.871L193.651 150.353C193.502 150.21 193.377 150.044 193.282 149.862ZM192.274 149.046C192.468 148.872 192.621 148.656 192.721 148.415C192.821 148.174 192.866 147.913 192.853 147.652V146.565H191.371C190.765 146.522 190.158 146.647 189.617 146.925C189.433 147.054 189.285 147.23 189.19 147.435C189.094 147.64 189.054 147.866 189.074 148.091C189.06 148.297 189.093 148.504 189.168 148.697C189.244 148.889 189.362 149.062 189.512 149.204C189.863 149.48 190.303 149.618 190.748 149.59C191.308 149.615 191.856 149.42 192.274 149.046Z" fill="white"/>
</svg>
