<svg width="370" height="333" viewBox="0 0 370 333" fill="none" xmlns="http://www.w3.org/2000/svg">
<path d="M147.405 139.954C135.223 138.72 126.687 138.252 124.522 135.697" stroke="white" stroke-width="3"/>
<path d="M197.426 250.109C189.267 249.4 170.925 247.768 162.837 246.916C154.748 246.065 152.903 240.708 152.726 237.87V232.548M202.216 198.491L167.626 194.766C161.773 194.234 158.048 189.444 157.515 184.655C157.338 183.059 158.58 172.948 158.58 170.819C158.58 168.691 159.644 164.966 160.176 163.901" stroke="white" stroke-width="3"/>
<path d="M225.157 29.4915C211.321 32.1522 183.117 14.0592 149.592 16.1878C119.26 18.1137 95.313 38.0058 95.313 62.4846C95.313 86.9634 107.153 114.635 102.763 132.196C99.038 147.096 37.3088 173.703 27.7302 190.732C22.9196 199.284 16.023 224.789 27.7302 240.754C39.4374 256.718 70.3019 264.7 91.0557 282.793C111.809 300.886 153.849 323.237 187.374 305.144C220.899 287.051 220.899 246.075 225.157 224.789C229.414 203.504 250.7 196.053 301.786 164.657C342.761 139.474 345.954 99.2028 335.311 86.4312C321.821 70.2433 319.347 61.4201 320.411 38.0059C321.475 14.5916 298.061 -4.03334 277.307 0.75598C256.553 5.5453 238.993 26.8308 225.157 29.4915Z" fill="#FF601A"/>
<path d="M297.272 55.4161C277.051 34.1302 250.443 9.11931 212.661 10.7157C166.896 17.6337 171.472 52.8958 153.06 64.9948C134.435 77.2342 68.4491 82.5556 53.549 92.6664C32.7953 106.749 34.4787 127.211 37.0525 141.624C39.7132 156.524 19.8845 168.912 10.9772 175.681C-2.32653 185.792 -6.76002 213.897 16.2987 226.767C39.181 239.539 63.6597 229.96 84.9456 236.878C101.442 242.24 99.3136 283.707 99.3136 302.332C99.3136 320.957 115.278 344.372 144.014 326.279C172.75 308.186 159.978 292.754 204.146 278.918C248.315 265.082 266.94 277.854 295.144 241.668C315.882 215.06 297.272 187.921 339.312 158.653C364.323 141.24 364.855 113.42 355.276 96.9236C344.638 78.6023 317.494 76.702 297.272 55.4161Z" fill="#FFA624" fill-opacity="0.85"/>
<g filter="url(#filter0_f_672_45)">
<path d="M182.002 82.0432C148.477 80.4467 122.934 99.6037 123.466 133.128C123.466 135.256 124.85 135.895 128.255 136.321C132.513 136.853 158.056 139.515 159.652 139.515C163.909 139.515 166.038 140.047 166.57 137.386C167.23 134.086 166.599 134.612 169.231 124.082C171.36 115.568 184.131 114.504 188.92 117.697C193.71 120.89 199.692 128.601 194.774 138.983C189.985 149.093 178.036 155.869 170.295 161.333C161.249 167.719 160.717 180.49 160.717 185.812C160.717 191.133 160.184 192.197 164.442 192.729C168.699 193.262 195.838 196.454 199.031 195.922C202.224 195.39 200.095 194.858 201.692 185.812C202.725 179.959 202.293 181.841 228.299 165.589C253.842 149.626 247.989 117.697 241.603 108.118C230.363 91.2585 215.528 83.6396 182.002 82.0432Z" fill="url(#paint0_radial_672_45)" fill-opacity="0.95" stroke="#FF4E00" stroke-width="2"/>
<rect x="159.597" y="206.596" width="39.8953" height="36.5974" rx="2" transform="rotate(5.70631 159.597 206.596)" fill="url(#paint1_radial_672_45)" fill-opacity="0.95" stroke="#FF4E00" stroke-width="2"/>
</g>
<path d="M185.195 79.9147C151.67 78.3183 126.127 97.4753 126.659 130.999C126.659 133.128 128.043 133.766 131.448 134.192C135.706 134.724 161.249 137.386 162.845 137.386C167.102 137.386 169.231 137.918 169.763 135.258C170.423 131.957 169.791 132.484 172.424 121.954C174.552 113.44 187.324 112.375 192.113 115.568C196.903 118.761 202.884 126.473 197.967 136.854C193.178 146.965 181.229 153.741 173.488 159.204C164.441 165.59 163.909 178.362 163.909 183.683C163.909 189.005 163.377 190.069 167.634 190.601C171.892 191.133 199.031 194.326 202.224 193.794C205.417 193.262 203.288 192.73 204.885 183.683C205.918 177.831 205.486 179.712 231.492 163.46C257.035 147.497 251.182 115.568 244.796 105.99C233.555 89.1301 218.721 81.5112 185.195 79.9147Z" fill="white"/>
<rect x="161.894" y="203.373" width="41.8953" height="38.5974" rx="3" transform="rotate(5.70631 161.894 203.373)" fill="white"/>
<line x1="127.715" y1="269.616" x2="106.779" y2="290.552" stroke="white" stroke-width="2" stroke-linecap="round"/>
<line x1="286.295" y1="106.779" x2="274.938" y2="118.137" stroke="white" stroke-width="2" stroke-linecap="round"/>
<line x1="112.815" y1="228.109" x2="101.458" y2="239.466" stroke="#FF601A" stroke-width="2" stroke-linecap="round"/>
<line x1="282.038" y1="53.5646" x2="262.166" y2="73.4363" stroke="#FF601A" stroke-width="2" stroke-linecap="round"/>
<line x1="70.2434" y1="198.309" x2="14.1858" y2="254.366" stroke="#FF601A" stroke-width="2" stroke-linecap="round"/>
<line x1="258.623" y1="282.388" x2="215.337" y2="325.674" stroke="#FF601A" stroke-width="2" stroke-linecap="round"/>
<path d="M132.505 92.0613C148.682 72.4783 176.673 67.5827 197.427 70.776M234.677 168.158C238.402 166.562 249.045 157.515 251.706 152.194" stroke="white" stroke-width="3"/>
<path d="M210.198 202.216C212.859 204.877 211.262 214.987 210.73 220.309" stroke="white" stroke-width="3"/>
<line x1="117.072" y1="68.4645" x2="61.0146" y2="124.522" stroke="#FF601A" stroke-width="2" stroke-linecap="round"/>
<line x1="360.796" y1="56.7575" x2="288.774" y2="128.78" stroke="#FF601A" stroke-width="2" stroke-linecap="round"/>
<line x1="339.51" y1="165.316" x2="267.488" y2="237.338" stroke="#FF601A" stroke-width="2" stroke-linecap="round"/>
<line x1="100.044" y1="215.337" x2="53.5647" y2="261.816" stroke="white" stroke-width="2" stroke-linecap="round"/>
<line x1="121.33" y1="107.843" x2="47.179" y2="181.994" stroke="white" stroke-width="2" stroke-linecap="round"/>
<line x1="175.608" y1="18.443" x2="129.129" y2="64.922" stroke="white" stroke-width="2" stroke-linecap="round"/>
<line x1="368.246" y1="97.2008" x2="321.767" y2="143.68" stroke="white" stroke-width="2" stroke-linecap="round"/>
<defs>
<filter id="filter0_f_672_45" x="118.458" y="76.9507" width="133.636" height="174.839" filterUnits="userSpaceOnUse" color-interpolation-filters="sRGB">
<feFlood flood-opacity="0" result="BackgroundImageFix"/>
<feBlend mode="normal" in="SourceGraphic" in2="BackgroundImageFix" result="shape"/>
<feGaussianBlur stdDeviation="2" result="effect1_foregroundBlur_672_45"/>
</filter>
<radialGradient id="paint0_radial_672_45" cx="0" cy="0" r="1" gradientUnits="userSpaceOnUse" gradientTransform="translate(188.38 126.88) rotate(92.5719) scale(69.1713 74.9177)">
<stop stop-color="#FFB345"/>
<stop offset="1" stop-color="#FF651A"/>
</radialGradient>
<radialGradient id="paint1_radial_672_45" cx="0" cy="0" r="1" gradientUnits="userSpaceOnUse" gradientTransform="translate(180.7 220.709) rotate(92.5747) scale(23.4132 25.3866)">
<stop stop-color="#FFB345"/>
<stop offset="1" stop-color="#FF651A"/>
</radialGradient>
</defs>
</svg>
