<svg width="190" height="50" viewBox="0 0 190 50" fill="none" xmlns="http://www.w3.org/2000/svg">
<g clip-path="url(#clip0_460_80)">
<path d="M-0.00878906 4.4592e-06C1.20092 -0.00120607 2.399 0.244059 3.51701 0.72179C4.63502 1.19952 5.65106 1.90036 6.50707 2.78425C7.36308 3.66815 8.04229 4.71779 8.5059 5.87321C8.96951 7.02863 9.20843 8.26718 9.20902 9.51811V19.9162C9.20902 20.985 9.24466 22.0769 9.32485 23.1917C9.38468 24.2387 9.62298 25.2666 10.0288 26.2278C10.424 27.1379 11.0703 27.9072 11.8866 28.4391C12.7271 29.0043 13.9152 29.2868 15.4507 29.2868C16.9833 29.2868 18.1684 29.0058 19.0149 28.4391C19.8227 27.8983 20.4653 27.1314 20.8683 26.2278C21.2871 25.2697 21.5346 24.2411 21.5989 23.1917C21.6732 22.0769 21.7118 20.985 21.7148 19.9162V9.47204C21.7142 8.22798 21.9507 6.99601 22.4108 5.84653C22.8709 4.69706 23.5456 3.65263 24.3963 2.77295C25.247 1.89327 26.257 1.19559 27.3686 0.719786C28.4802 0.243987 29.6716 -0.000601068 30.8746 4.4592e-06V21.2246C30.8746 26.925 29.6138 31.0866 27.0922 33.7096C24.5705 36.3325 20.6915 37.644 15.4552 37.644C10.2248 37.644 6.34135 36.3325 3.80486 33.7096C1.26837 31.0866 -0.0028488 26.925 -0.00878906 21.2246V4.4592e-06Z" fill="#FFA624"/>
<path d="M43.1219 0.534417V3.69023C44.0461 2.4269 45.2562 1.41758 46.6459 0.750946C47.9793 0.225239 49.3982 -0.0297267 50.8249 2.57953e-06C52.315 -0.0394588 53.7961 0.251141 55.1687 0.852301C56.3556 1.40426 57.4076 2.22448 58.2473 3.25256C58.9207 4.06741 59.4026 5.03244 59.6551 6.07205C59.9183 7.23449 60.044 8.42569 60.0293 9.61946V47.8347C57.7749 47.8347 55.6127 46.9086 54.0186 45.2601C52.4244 43.6116 51.5288 41.3758 51.5288 39.0445V12.872C51.549 11.8777 51.4624 10.8842 51.2704 9.9097C51.1456 9.22146 50.8369 8.58309 50.3794 8.0669C50.0236 7.69403 49.5889 7.41172 49.1096 7.24224C48.6236 7.0777 48.1152 6.99525 47.6038 6.99807C46.1662 6.99807 45.0628 7.44341 44.2936 8.3341C43.5273 9.22787 43.1441 10.4948 43.1441 12.1487V27.831C43.1453 28.9881 42.9256 30.134 42.4975 31.203C42.0694 32.2721 41.4415 33.2432 40.6497 34.0607C39.8579 34.8783 38.9177 35.5261 37.8832 35.9671C36.8488 36.408 35.7403 36.6335 34.6213 36.6304V9.32461C34.6213 8.17027 34.8412 7.02723 35.2684 5.96075C35.6956 4.89427 36.3217 3.92525 37.1111 3.10901C38.7052 1.46052 40.8674 0.534417 43.1219 0.534417Z" fill="#FFA624"/>
<path d="M65.2418 4.95257C65.2373 4.2934 65.3663 3.64055 65.6205 3.03604C65.8641 2.4458 66.215 1.90936 66.6541 1.45584C67.0926 1.00382 67.6095 0.641222 68.1778 0.387008C68.7653 0.131694 69.3961 0.000183105 70.0334 0.000183105C70.6707 0.000183105 71.3015 0.131694 71.889 0.387008C73.0409 0.896058 73.9585 1.84493 74.4507 3.03604C74.6976 3.64355 74.8248 4.29589 74.8248 4.95487C74.8248 5.61384 74.6976 6.26619 74.4507 6.87369C74.2049 7.46133 73.8542 7.99584 73.4171 8.44929C72.9785 8.90336 72.4598 9.26619 71.889 9.51812C71.3023 9.77651 70.6711 9.90969 70.0334 9.90969C69.3957 9.90969 68.7645 9.77651 68.1778 9.51812C67.0305 9.00603 66.1157 8.06007 65.6205 6.87369C65.366 6.26768 65.237 5.61326 65.2418 4.95257ZM74.3082 21.3121V47.8347C72.0537 47.8347 69.8915 46.9086 68.2974 45.2601C66.7032 43.6116 65.8076 41.3758 65.8076 39.0445V12.5219C68.0621 12.5219 70.2243 13.448 71.8184 15.0965C73.4126 16.745 74.3082 18.9808 74.3082 21.3121Z" fill="#FFA624"/>
<path d="M111.006 5.45471C111.003 4.85305 111.12 4.25724 111.349 3.70404C111.801 2.62148 112.636 1.75816 113.683 1.28996C114.22 1.05593 114.796 0.935364 115.378 0.935364C115.961 0.935364 116.537 1.05593 117.074 1.28996C118.114 1.762 118.942 2.62484 119.39 3.70404C119.617 4.25883 119.733 4.85488 119.733 5.45701C119.733 6.05915 119.617 6.65519 119.39 7.20998C118.938 8.29254 118.103 9.15586 117.056 9.62406C116.519 9.85809 115.943 9.97866 115.361 9.97866C114.778 9.97866 114.202 9.85809 113.665 9.62406C112.634 9.14727 111.814 8.28502 111.371 7.20998C111.134 6.657 111.01 6.05952 111.006 5.45471ZM119.279 22.2151V36.9575C117.221 36.9575 115.247 36.112 113.791 34.6069C112.336 33.1019 111.518 31.0606 111.518 28.9321V14.1896C112.537 14.1896 113.546 14.3972 114.488 14.8005C115.43 15.2038 116.285 15.795 117.006 16.5402C117.727 17.2854 118.298 18.1702 118.688 19.1439C119.078 20.1175 119.279 21.1611 119.279 22.2151Z" fill="#FF601A"/>
<path d="M133.126 8.15901V36.9345C132.107 36.9345 131.098 36.7268 130.157 36.3235C129.215 35.9201 128.36 35.3289 127.64 34.5836C126.919 33.8383 126.348 32.9535 125.959 31.9799C125.569 31.0062 125.369 29.9627 125.369 28.909V0.138184C127.427 0.138184 129.399 0.983232 130.854 2.48743C132.309 3.99162 133.126 6.03175 133.126 8.15901Z" fill="#FF601A"/>
<path d="M152.582 14.3878H157.638C158.355 14.3878 159.043 14.6824 159.55 15.2068C160.058 15.7313 160.343 16.4425 160.343 17.1842C162.445 15.0988 164.817 14.056 167.457 14.056C168.958 13.9991 170.445 14.3652 171.759 15.1151C173.074 15.8649 174.166 16.9703 174.92 18.3129C176.663 15.4474 179.149 14.0146 182.378 14.0146C183.367 14.0074 184.35 14.1629 185.292 14.4753C186.178 14.766 186.986 15.266 187.653 15.9357C188.351 16.6723 188.884 17.5575 189.217 18.5295C189.631 19.7702 189.827 21.0778 189.796 22.3901V37.1326C187.737 37.1326 185.763 36.2871 184.308 34.782C182.853 33.277 182.035 31.2357 182.035 29.1072V25.9145C182.052 24.9641 181.973 24.0145 181.799 23.0812C181.692 22.4598 181.458 21.8691 181.113 21.349C180.849 20.9677 180.484 20.6746 180.061 20.5059C179.649 20.3565 179.215 20.2816 178.778 20.2847C176.292 20.2847 175.048 22.1613 175.045 25.9145V33.1199C175.045 33.6466 174.945 34.1683 174.751 34.6552C174.556 35.142 174.271 35.5844 173.911 35.957C173.551 36.3297 173.124 36.6254 172.653 36.8271C172.182 37.0288 171.678 37.1326 171.169 37.1326C170.139 37.1326 169.152 36.7099 168.425 35.9573C167.697 35.2048 167.288 34.1841 167.288 33.1199V25.9145C167.304 24.9576 167.232 24.0012 167.074 23.0582C166.973 22.4253 166.761 21.8167 166.451 21.2614C166.213 20.8387 165.841 20.5134 165.399 20.34C164.918 20.1689 164.411 20.0863 163.902 20.0959C163.436 20.0922 162.973 20.1669 162.53 20.317C162.076 20.4815 161.68 20.7832 161.394 21.1831C161.019 21.712 160.755 22.3162 160.619 22.9568C160.414 23.9233 160.321 24.9115 160.343 25.9007V29.0934C160.343 31.2218 159.525 33.2631 158.069 34.7682C156.614 36.2733 154.64 37.1188 152.582 37.1188V14.3878Z" fill="#FF601A"/>
<path d="M147.726 32.3689C147.728 32.9706 147.611 33.5664 147.383 34.1196C146.932 35.2038 146.096 36.0678 145.048 36.5337C144.512 36.7677 143.935 36.8883 143.353 36.8883C142.771 36.8883 142.194 36.7677 141.658 36.5337C140.609 36.0678 139.774 35.2038 139.323 34.1196C139.097 33.5657 138.98 32.9703 138.98 32.3689C138.98 31.7675 139.097 31.1722 139.323 30.6183C139.775 29.5307 140.614 28.6646 141.667 28.1996C142.203 27.9656 142.779 27.845 143.362 27.845C143.944 27.845 144.52 27.9656 145.057 28.1996C146.106 28.6665 146.942 29.5324 147.391 30.6183C147.618 31.1719 147.732 31.7678 147.726 32.3689ZM139.439 15.6086V0.88916C141.497 0.88916 143.471 1.7347 144.927 3.23976C146.382 4.74482 147.2 6.78612 147.2 8.91459V23.6571C146.179 23.6571 145.168 23.4487 144.225 23.044C143.282 22.6392 142.425 22.046 141.704 21.2983C140.983 20.5507 140.412 19.6632 140.023 18.6869C139.635 17.7105 139.436 16.6644 139.439 15.6086Z" fill="#FF601A"/>
<path d="M95.6442 12.9734C94.0689 12.9726 92.5091 13.296 91.0558 13.9249C89.6025 14.5537 88.2848 15.4753 87.1794 16.6359V0.138189C86.1596 0.136978 85.1496 0.343482 84.207 0.745911C83.2644 1.14834 82.4077 1.73881 81.6858 2.48361C80.9638 3.22842 80.3909 4.11296 79.9995 5.08675C79.6082 6.06054 79.4062 7.10449 79.405 8.15901V36.9345C80.791 36.9328 82.1513 36.5474 83.3445 35.8183C84.5377 35.0891 85.5204 34.0428 86.1903 32.7882C87.4215 34.4556 89.0438 35.7705 90.9037 36.6085C92.7636 37.4465 94.7995 37.7798 96.8188 37.5769C98.8381 37.3741 100.774 36.6417 102.443 35.4492C104.112 34.2566 105.459 32.6434 106.357 30.7621C107.255 28.8808 107.674 26.7937 107.574 24.6983C107.473 22.603 106.858 20.5687 105.785 18.788C104.713 17.0073 103.218 15.5392 101.444 14.5224C99.6691 13.5057 97.673 12.9741 95.6442 12.978V12.9734ZM95.6442 31.9957C94.3648 31.9957 93.1141 31.6034 92.0503 30.8684C90.9865 30.1333 90.1573 29.0886 89.6677 27.8663C89.1781 26.6439 89.05 25.2989 89.2996 24.0013C89.5492 22.7037 90.1653 21.5118 91.07 20.5762C91.9747 19.6407 93.1273 19.0036 94.3822 18.7455C95.637 18.4874 96.9377 18.6198 98.1198 19.1262C99.3018 19.6325 100.312 20.4899 101.023 21.5899C101.734 22.69 102.113 23.9833 102.113 25.3063C102.112 27.0801 101.43 28.7809 100.217 30.0351C99.0043 31.2894 97.3595 31.9945 95.6442 31.9957Z" fill="#FF601A"/>
<path d="M80.7104 47.5952C80.2938 47.3486 79.9491 46.9905 79.7125 46.5586C79.4692 46.1099 79.3432 45.6033 79.3471 45.0889V44.9231C79.3412 44.4046 79.4655 43.8935 79.708 43.4396C79.9413 42.9985 80.2866 42.6316 80.7066 42.3783C81.1265 42.1251 81.6054 41.995 82.0915 42.0022C82.5841 41.9965 83.069 42.1286 83.4949 42.3846C83.9106 42.6376 84.2524 43.0021 84.484 43.4396C84.7264 43.8935 84.8508 44.4046 84.8448 44.9231V45.0843C84.8533 45.6005 84.7321 46.1101 84.4929 46.5632C84.2663 46.9939 83.9285 47.3512 83.5172 47.5952C83.0959 47.8499 82.6152 47.9806 82.1272 47.9729C81.6307 47.9803 81.1415 47.8498 80.7104 47.5952ZM83.2543 47.1943C83.5957 46.9852 83.8759 46.6843 84.0652 46.3236C84.2667 45.9459 84.3696 45.5203 84.3637 45.0889V44.9231C84.3683 44.4854 84.2639 44.0539 84.0607 43.67C83.8691 43.3057 83.5858 43.0017 83.241 42.79C82.8928 42.5738 82.4932 42.4622 82.0871 42.4675C81.6834 42.4638 81.2867 42.5771 80.9421 42.7946C80.5983 43.0082 80.3166 43.3138 80.1268 43.6792C79.9285 44.0614 79.8273 44.4894 79.8327 44.9231V45.0843C79.8275 45.5151 79.9287 45.9401 80.1268 46.319C80.4289 46.8618 80.9271 47.2585 81.5119 47.4217C82.0966 47.585 82.7201 47.5016 83.2454 47.1897L83.2543 47.1943Z" fill="#1D1D1D"/>
<path d="M86.2837 47.3878C85.9464 46.9271 85.7691 46.3623 85.7803 45.7846C85.7803 45.7247 85.7803 45.6325 85.7803 45.5035C85.7821 45.0072 85.8283 44.5122 85.9184 44.0247C85.9843 43.6161 86.1364 43.2276 86.3639 42.8868C86.5093 42.6745 86.6998 42.4995 86.9208 42.3754C87.1404 42.2501 87.3759 42.1571 87.6203 42.099C87.8653 42.0391 88.1995 41.9654 88.6182 41.8916L89.1484 41.7995L89.2464 42.2602L88.6494 42.3662C88.2221 42.429 87.8024 42.5386 87.3975 42.6933C87.0991 42.816 86.8463 43.0338 86.6758 43.3152C86.4679 43.6865 86.3473 44.1031 86.3238 44.5315C86.4741 44.304 86.6683 44.111 86.8941 43.9648C87.1435 43.8342 87.4212 43.7723 87.7005 43.7851C87.9988 43.7748 88.2929 43.8601 88.5425 44.0293C88.8041 44.2072 89.0137 44.4557 89.1484 44.748C89.3052 45.0854 89.3831 45.4563 89.3756 45.8306C89.379 46.1868 89.3107 46.5398 89.1751 46.8672C89.0499 47.1739 88.8467 47.4398 88.5871 47.6366C88.3287 47.832 88.0161 47.9354 87.696 47.9314C87.4358 47.9627 87.1722 47.9297 86.9267 47.8352C86.6812 47.7407 86.4608 47.5874 86.2837 47.3878ZM88.3019 47.2404C88.4992 47.0776 88.6527 46.865 88.7474 46.6231C88.8422 46.3672 88.8905 46.0954 88.89 45.8214C88.8924 45.5582 88.8455 45.2969 88.7519 45.0521C88.6697 44.8256 88.5314 44.6255 88.3509 44.4716C88.17 44.3195 87.9425 44.2394 87.7094 44.2458C87.3985 44.2434 87.0957 44.3488 86.8495 44.5453C86.5917 44.7372 86.4035 45.013 86.3149 45.3285C86.2879 45.4084 86.2743 45.4926 86.2748 45.5773C86.2406 46.0721 86.3458 46.5666 86.5778 47.0008C86.702 47.1658 86.8652 47.2948 87.0518 47.3755C87.2383 47.4562 87.4417 47.4858 87.6426 47.4615C87.8819 47.4634 88.1146 47.3805 88.3019 47.2266V47.2404Z" fill="#1D1D1D"/>
<path d="M92.8953 43.8911C93.1549 44.0879 93.3581 44.3538 93.4834 44.6605C93.617 45.0029 93.6836 45.3693 93.6794 45.7385C93.6875 46.1282 93.6082 46.5145 93.4477 46.8672C93.2981 47.1856 93.063 47.4527 92.7705 47.6366C92.4513 47.8317 92.0852 47.9291 91.7146 47.9176C91.581 47.9176 91.2691 47.8808 90.7568 47.8117V49.9908H90.3113V44.9231C90.326 44.7461 90.3034 44.5679 90.2449 44.4008C90.1864 44.2338 90.0935 44.0818 89.9727 43.9556L90.2934 43.6239C90.3964 43.6986 90.4868 43.7905 90.5607 43.8957C90.644 44.0127 90.7073 44.1436 90.7479 44.2827C90.8673 44.0631 91.0458 43.884 91.2617 43.7671C91.4775 43.6502 91.7215 43.6004 91.9641 43.6239C92.2937 43.6122 92.6187 43.7054 92.8953 43.8911ZM92.8151 47.0147C93.0832 46.6647 93.2194 46.226 93.1982 45.78C93.2131 45.3439 93.0997 44.9133 92.873 44.5453C92.7768 44.3921 92.6446 44.2665 92.4888 44.1803C92.333 44.0941 92.1586 44.0501 91.982 44.0523C91.6853 44.0499 91.3971 44.1541 91.1666 44.3472C91.0519 44.4359 90.9573 44.5494 90.8896 44.68C90.8218 44.8105 90.7826 44.9548 90.7746 45.1027V47.4063C91.2691 47.4569 91.5765 47.4846 91.6924 47.4846C91.9013 47.496 92.1102 47.4598 92.3042 47.3786C92.4982 47.2974 92.6726 47.1732 92.8151 47.0147Z" fill="#1D1D1D"/>
<path d="M97.1457 47.6274C97.0731 47.5043 97.0148 47.3729 96.9719 47.2358C96.8661 47.4494 96.6998 47.6246 96.4952 47.7379C96.257 47.8639 95.9919 47.9257 95.7245 47.9176C95.354 47.9369 94.99 47.812 94.7042 47.5675C94.577 47.4482 94.477 47.3012 94.4116 47.137C94.3461 46.9729 94.3167 46.7958 94.3255 46.6184C94.3185 46.43 94.3553 46.2425 94.4328 46.0717C94.5103 45.901 94.6263 45.752 94.771 45.6371C95.1284 45.382 95.5584 45.2587 95.9918 45.287H96.9273V44.9876C96.9469 44.7222 96.8725 44.4586 96.718 44.2458C96.6331 44.1605 96.5315 44.095 96.4201 44.0536C96.3086 44.0123 96.1899 43.9962 96.072 44.0063C95.8472 44.0068 95.6241 44.0473 95.4126 44.126C95.1948 44.2004 94.9902 44.3109 94.8067 44.4531L94.5928 44.0892C94.7949 43.913 95.0278 43.7785 95.2789 43.693C95.5371 43.6016 95.808 43.5549 96.0809 43.5548C96.2597 43.5408 96.4394 43.5642 96.6094 43.6236C96.7793 43.6829 96.9359 43.777 97.0699 43.9003C97.1889 44.0336 97.2804 44.1906 97.3386 44.3617C97.3968 44.5328 97.4206 44.7144 97.4085 44.8954V46.6369C97.3848 46.9971 97.4983 47.3526 97.7248 47.6274L97.4085 47.9038C97.3068 47.8273 97.2179 47.7339 97.1457 47.6274ZM96.5888 47.1667C96.6944 47.0644 96.7776 46.94 96.8329 46.8017C96.8882 46.6635 96.9144 46.5146 96.9095 46.3651V45.7431H96.0853C95.7467 45.7144 95.4071 45.7846 95.1052 45.9458C95.0032 46.0204 94.9219 46.1213 94.8696 46.2385C94.8172 46.3558 94.7955 46.4852 94.8067 46.6138C94.799 46.7323 94.8166 46.851 94.8581 46.9617C94.8997 47.0723 94.9643 47.1722 95.0473 47.2542C95.2417 47.4131 95.4861 47.4919 95.7334 47.4753C96.0471 47.4904 96.3541 47.378 96.5888 47.1621V47.1667Z" fill="#1D1D1D"/>
<path d="M98.8965 47.8255C98.6396 47.7466 98.4013 47.6132 98.197 47.4339L98.4866 47.1252C98.6404 47.2472 98.816 47.3365 99.0034 47.3878C99.2321 47.4649 99.4712 47.5038 99.7118 47.503C99.9497 47.5063 100.186 47.4609 100.407 47.3694C100.593 47.2936 100.757 47.1699 100.884 47.01C100.996 46.8702 101.057 46.6942 101.057 46.5125C101.059 46.4012 101.038 46.2909 100.996 46.1885C100.953 46.0861 100.891 45.9941 100.812 45.9182C100.725 45.8339 100.623 45.7684 100.511 45.7257C100.4 45.6829 100.281 45.6638 100.162 45.6694H99.2039V45.2456H100.157C100.334 45.2509 100.508 45.1922 100.647 45.0797C100.709 45.032 100.759 44.9702 100.794 44.899C100.829 44.8279 100.847 44.7494 100.848 44.6697C100.845 44.5576 100.807 44.4495 100.741 44.3609C100.674 44.2724 100.582 44.2079 100.478 44.1767C100.218 44.0715 99.9417 44.0183 99.6628 44.0201C99.2924 44.0194 98.9241 44.0785 98.5713 44.1952L98.4732 43.7713C98.8942 43.6266 99.335 43.5535 99.7786 43.5548C100.067 43.5469 100.353 43.6002 100.621 43.7114C100.828 43.7989 101.011 43.9401 101.151 44.1214C101.258 44.2576 101.321 44.4246 101.332 44.5995C101.343 44.7744 101.302 44.9486 101.213 45.0981C101.145 45.2314 101.044 45.3429 100.919 45.4206C101.099 45.5378 101.251 45.6952 101.365 45.8813C101.479 46.0966 101.532 46.3415 101.515 46.5866C101.498 46.8318 101.414 47.0668 101.271 47.2634C101.094 47.489 100.862 47.661 100.598 47.761C100.314 47.872 100.012 47.9282 99.7073 47.9268C99.4337 47.9351 99.1604 47.9009 98.8965 47.8255Z" fill="#1D1D1D"/>
<path d="M103.178 47.6412C102.88 47.4596 102.637 47.1945 102.479 46.8764C102.313 46.5289 102.227 46.1466 102.227 45.7592C102.227 45.3718 102.313 44.9896 102.479 44.642C102.639 44.3212 102.883 44.0531 103.183 43.8681C103.491 43.6841 103.84 43.5872 104.196 43.5872C104.552 43.5872 104.901 43.6841 105.21 43.8681C105.507 44.0527 105.749 44.319 105.909 44.6374C106.076 44.9837 106.163 45.3654 106.163 45.7523C106.163 46.1393 106.076 46.521 105.909 46.8672C105.749 47.1856 105.507 47.452 105.21 47.6366C104.903 47.8269 104.551 47.9242 104.194 47.9176C103.837 47.9235 103.486 47.8278 103.178 47.6412ZM105.281 46.9916C105.561 46.6452 105.705 46.2032 105.686 45.7523C105.692 45.4434 105.628 45.1373 105.499 44.8586C105.385 44.6096 105.204 44.4 104.978 44.255C104.742 44.113 104.474 44.0382 104.201 44.0382C103.927 44.0382 103.659 44.113 103.423 44.255C103.194 44.4022 103.011 44.6151 102.897 44.8678C102.773 45.1479 102.71 45.4533 102.715 45.7615C102.71 46.0669 102.772 46.3694 102.897 46.6461C103.013 46.8952 103.196 47.1047 103.423 47.2496C103.657 47.3991 103.928 47.4758 104.203 47.4707C104.406 47.4783 104.607 47.4392 104.794 47.3564C104.98 47.2735 105.147 47.1489 105.281 46.9916Z" fill="#1D1D1D"/>
<path d="M108.858 43.6377C109.193 43.6152 109.524 43.7237 109.785 43.9418C109.887 44.0333 109.968 44.1466 110.024 44.2739C110.079 44.4011 110.107 44.5393 110.106 44.6789C110.106 44.8376 110.074 44.9946 110.012 45.1396C109.953 45.2918 109.858 45.4264 109.736 45.5312C109.924 45.6381 110.078 45.7978 110.182 45.9919C110.289 46.1904 110.344 46.4142 110.342 46.6415C110.347 46.946 110.237 47.2405 110.034 47.4616C109.795 47.6986 109.475 47.8278 109.143 47.8209H107.179V43.6331L108.858 43.6377ZM109.451 45.1442C109.568 45.0213 109.633 44.8559 109.634 44.6835C109.637 44.5999 109.62 44.5168 109.585 44.4414C109.55 44.366 109.498 44.3004 109.433 44.2505C109.277 44.1369 109.089 44.0816 108.898 44.0938H107.642V45.3838H108.979C109.159 45.3648 109.326 45.2799 109.451 45.1442ZM109.665 47.1897C109.735 47.1201 109.791 47.0355 109.827 46.9416C109.863 46.8478 109.879 46.747 109.874 46.6461C109.878 46.4338 109.807 46.2274 109.674 46.0656C109.603 45.9828 109.516 45.9171 109.418 45.8733C109.32 45.8295 109.214 45.8086 109.108 45.8122H107.642V47.3694H109.108C109.309 47.383 109.507 47.319 109.665 47.1897Z" fill="#1D1D1D"/>
<path d="M113.799 47.6274C113.727 47.5043 113.668 47.3729 113.625 47.2358C113.519 47.4507 113.351 47.6261 113.144 47.738C112.908 47.8639 112.644 47.9258 112.378 47.9176C112.008 47.9374 111.643 47.8124 111.358 47.5675C111.23 47.4485 111.129 47.3016 111.063 47.1375C110.997 46.9734 110.967 46.7961 110.975 46.6185C110.967 46.4299 111.003 46.2421 111.081 46.0713C111.158 45.9004 111.275 45.7515 111.42 45.6372C111.777 45.3814 112.207 45.258 112.641 45.287H113.576V44.9876C113.597 44.7214 113.521 44.457 113.363 44.2459C113.278 44.1577 113.175 44.0901 113.062 44.0478C112.948 44.0056 112.828 43.9899 112.708 44.0017C112.483 44.0018 112.26 44.0424 112.048 44.1215C111.831 44.1958 111.626 44.3063 111.442 44.4486L111.224 44.0846C111.428 43.9083 111.662 43.7739 111.915 43.6884C112.173 43.5963 112.444 43.5496 112.717 43.5502C112.895 43.5362 113.075 43.5596 113.245 43.619C113.415 43.6783 113.572 43.7725 113.706 43.8957C113.825 44.029 113.916 44.186 113.974 44.3571C114.033 44.5282 114.056 44.7099 114.044 44.8908V46.6323C114.019 46.9919 114.131 47.3473 114.356 47.6228L114.044 47.8992C113.949 47.8226 113.867 47.7308 113.799 47.6274ZM113.242 47.1667C113.348 47.0644 113.431 46.94 113.486 46.8017C113.542 46.6635 113.568 46.5146 113.563 46.3651V45.7431H112.739C112.4 45.7144 112.061 45.7847 111.759 45.9458C111.657 46.0204 111.576 46.1213 111.523 46.2386C111.471 46.3558 111.449 46.4852 111.46 46.6139C111.453 46.7323 111.47 46.851 111.512 46.9617C111.553 47.0724 111.618 47.1722 111.701 47.2542C111.895 47.4135 112.14 47.4923 112.387 47.4754C112.701 47.4895 113.007 47.3771 113.242 47.1621V47.1667Z" fill="#1D1D1D"/>
<path d="M116.348 44.1307H114.811V43.67H118.375V44.1307H116.838V47.8163H116.357L116.348 44.1307Z" fill="#1D1D1D"/>
<path d="M119.618 46.9962C119.733 47.1717 119.893 47.3105 120.08 47.3967C120.268 47.483 120.475 47.5135 120.678 47.4846C120.886 47.4865 121.094 47.4538 121.293 47.3878C121.523 47.3061 121.747 47.2044 121.961 47.0838L122.166 47.4339C121.947 47.5891 121.706 47.7102 121.453 47.7933C121.193 47.8809 120.921 47.926 120.647 47.9269C120.397 47.9434 120.148 47.9015 119.916 47.8041C119.685 47.7068 119.477 47.5566 119.31 47.3648C118.984 46.948 118.817 46.4216 118.842 45.8859C118.838 45.4989 118.909 45.115 119.052 44.7572C119.178 44.4258 119.391 44.1372 119.667 43.9234C119.947 43.7079 120.289 43.596 120.638 43.6055C120.931 43.6008 121.22 43.6772 121.475 43.8266C121.725 43.9771 121.929 44.1975 122.063 44.4624C122.209 44.7359 122.283 45.044 122.277 45.3561C122.277 45.4437 122.277 45.522 122.277 45.5911C122.277 45.6602 122.277 45.7201 122.277 45.7708V45.9458H119.368C119.364 46.3122 119.45 46.6736 119.618 46.9962ZM121.845 45.4805C121.848 45.4238 121.848 45.3668 121.845 45.3101C121.849 45.0768 121.793 44.8465 121.685 44.6421C121.58 44.4492 121.426 44.2898 121.239 44.1814C121.011 44.04 120.742 43.9839 120.479 44.0225C120.215 44.061 119.973 44.1919 119.791 44.3933C119.53 44.6942 119.373 45.0769 119.346 45.4805H121.845Z" fill="#1D1D1D"/>
<path d="M122.723 47.6504L123.079 47.3694C123.105 47.4058 123.138 47.4354 123.177 47.4554C123.216 47.4755 123.259 47.4855 123.302 47.4846C123.342 47.4877 123.382 47.4805 123.419 47.4636C123.455 47.4468 123.487 47.4207 123.511 47.3878C123.574 47.2954 123.621 47.1925 123.65 47.0838C123.771 46.6257 123.837 46.1536 123.846 45.6786C123.877 45.0751 123.89 44.3979 123.89 43.6561H126.532V47.8024H126.073V44.08H124.362C124.362 44.6605 124.336 45.2502 124.3 45.8537C124.286 46.3067 124.222 46.7565 124.108 47.1943C124.054 47.3948 123.954 47.5793 123.819 47.7333C123.661 47.8645 123.46 47.926 123.259 47.9044C123.058 47.8829 122.873 47.78 122.745 47.6182L122.723 47.6504Z" fill="#1D1D1D"/>
<path d="M128.301 43.67V45.1442H129.704C129.942 45.1473 130.174 45.2157 130.377 45.3423C130.568 45.4639 130.722 45.6378 130.823 45.8445C130.934 46.0598 130.99 46.3007 130.987 46.5448C130.998 46.7273 130.97 46.91 130.905 47.0803C130.84 47.2505 130.741 47.4042 130.613 47.5307C130.473 47.6535 130.311 47.7464 130.135 47.8041C129.96 47.8618 129.776 47.8832 129.593 47.867L127.811 47.8439V43.6976L128.301 43.67ZM130.266 47.1483C130.343 47.0721 130.405 46.9798 130.445 46.8773C130.486 46.7749 130.505 46.6647 130.502 46.554C130.505 46.3059 130.417 46.0657 130.257 45.8814C130.165 45.7851 130.054 45.7109 129.932 45.664C129.809 45.617 129.678 45.5984 129.548 45.6095H128.301V47.3971H129.548C129.804 47.4048 130.054 47.3164 130.252 47.1483H130.266Z" fill="#1D1D1D"/>
<path d="M135.131 47.8347H134.65V45.9919H132.422V47.8347H131.932V44.7019C131.932 44.4026 131.822 44.1146 131.625 43.8957L131.945 43.5732C132.097 43.7217 132.218 43.9003 132.302 44.0984C132.378 44.288 132.416 44.4919 132.413 44.6973V45.5542H134.641V43.6699H135.122L135.131 47.8347Z" fill="#1D1D1D"/>
<path d="M138.886 47.6274C138.817 47.5031 138.761 47.3719 138.717 47.2358C138.61 47.4498 138.442 47.6249 138.236 47.738C137.998 47.864 137.733 47.9257 137.465 47.9177C137.096 47.9376 136.733 47.8125 136.449 47.5675C136.322 47.4485 136.221 47.3016 136.155 47.1375C136.088 46.9734 136.058 46.7961 136.066 46.6185C136.058 46.4299 136.095 46.2421 136.172 46.0713C136.25 45.9004 136.366 45.7515 136.512 45.6372C136.867 45.3814 137.296 45.2579 137.728 45.287H138.664V44.9876C138.683 44.7223 138.609 44.4586 138.454 44.2459C138.37 44.1604 138.27 44.0947 138.159 44.0534C138.048 44.012 137.93 43.9959 137.813 44.0063C137.586 44.0065 137.362 44.047 137.149 44.1261C136.933 44.2015 136.73 44.3119 136.547 44.4532L136.329 44.0892C136.533 43.913 136.767 43.7785 137.02 43.693C137.276 43.6013 137.546 43.5546 137.817 43.5548C137.997 43.5415 138.177 43.5652 138.347 43.6245C138.518 43.6838 138.675 43.7776 138.811 43.9003C138.929 44.0342 139.02 44.1913 139.078 44.3623C139.136 44.5332 139.16 44.7146 139.149 44.8954V46.6369C139.124 46.9965 139.236 47.3519 139.461 47.6274L139.149 47.9038C139.048 47.8269 138.959 47.7336 138.886 47.6274ZM138.334 47.1667C138.438 47.0635 138.52 46.9388 138.574 46.8007C138.629 46.6626 138.655 46.5142 138.65 46.3651V45.7431H137.83C137.49 45.7145 137.149 45.7847 136.846 45.9458C136.745 46.021 136.664 46.1221 136.611 46.2392C136.559 46.3562 136.537 46.4853 136.547 46.6139C136.54 46.7327 136.559 46.8516 136.601 46.9623C136.643 47.073 136.709 47.1726 136.792 47.2542C136.985 47.4128 137.228 47.4916 137.474 47.4754C137.789 47.4897 138.097 47.3774 138.334 47.1621V47.1667Z" fill="#1D1D1D"/>
<path d="M140.174 47.9176C140.111 47.9076 140.051 47.8858 139.996 47.8531L140.254 47.4707C140.273 47.4838 140.294 47.4926 140.316 47.4965C140.338 47.5005 140.361 47.4996 140.383 47.4938C140.512 47.4271 140.625 47.331 140.713 47.2128C140.833 47.0653 140.949 46.9225 141.051 46.7843C141.191 46.5966 141.339 46.4167 141.497 46.2453C141.557 46.1887 141.628 46.1476 141.706 46.1255H141.421C141.27 46.1296 141.119 46.1046 140.976 46.0518C140.821 45.9962 140.68 45.9066 140.561 45.7892C140.438 45.6792 140.339 45.5424 140.272 45.3884C140.212 45.2424 140.181 45.086 140.178 44.9277C140.173 44.634 140.278 44.3498 140.472 44.1353C140.724 43.8646 141.064 43.7004 141.426 43.6746H143.319V47.8209H142.834V46.0702C142.648 46.0809 142.465 46.1262 142.294 46.2038C142.104 46.2777 141.932 46.3978 141.796 46.5539L141.617 46.7981L141.279 47.2312C141.173 47.3722 141.06 47.5075 140.94 47.6366C140.798 47.8024 140.601 47.9062 140.388 47.9268C140.316 47.933 140.244 47.9299 140.174 47.9176ZM141.207 45.6141C141.447 45.6618 141.69 45.6804 141.934 45.6694H142.825V44.1307H141.934C141.754 44.1216 141.573 44.1293 141.395 44.1537C141.281 44.1679 141.171 44.2022 141.069 44.255C140.947 44.3183 140.843 44.4156 140.771 44.5361C140.704 44.6502 140.669 44.7807 140.668 44.9139C140.669 45.0641 140.717 45.2099 140.806 45.3285C140.905 45.4759 141.052 45.5808 141.221 45.6233L141.207 45.6141Z" fill="#1D1D1D"/>
<path d="M150.029 47.8347H149.548V44.1491H147.32V47.8347H146.839V43.6884H150.02L150.029 47.8347Z" fill="#1D1D1D"/>
<path d="M150.768 47.6504L151.125 47.3694C151.15 47.4058 151.184 47.4354 151.222 47.4554C151.261 47.4755 151.304 47.4855 151.347 47.4846C151.387 47.4873 151.427 47.4799 151.464 47.4631C151.5 47.4462 151.532 47.4204 151.557 47.3878C151.619 47.2954 151.666 47.1925 151.695 47.0838C151.817 46.6257 151.883 46.1536 151.891 45.6786C151.922 45.0751 151.936 44.3979 151.936 43.6561H154.578V47.8024H154.092V44.08H152.386C152.386 44.6605 152.359 45.2502 152.323 45.8537C152.309 46.3067 152.245 46.7565 152.132 47.1943C152.077 47.3948 151.978 47.5793 151.842 47.7333C151.685 47.8645 151.483 47.926 151.282 47.9044C151.081 47.8829 150.896 47.78 150.768 47.6182V47.6504Z" fill="#1D1D1D"/>
<path d="M158.324 47.6274C158.253 47.5004 158.195 47.366 158.151 47.2266C158.043 47.4406 157.875 47.6157 157.669 47.7288C157.431 47.8547 157.166 47.9165 156.899 47.9084C156.53 47.9284 156.167 47.8033 155.883 47.5583C155.755 47.4393 155.655 47.2924 155.588 47.1283C155.522 46.9642 155.492 46.7869 155.5 46.6093C155.492 46.4207 155.528 46.2329 155.606 46.062C155.684 45.8912 155.8 45.7422 155.945 45.628C156.301 45.3722 156.73 45.2487 157.162 45.2778H158.097V44.9784C158.117 44.713 158.042 44.4494 157.888 44.2366C157.803 44.1505 157.702 44.0845 157.59 44.0431C157.479 44.0018 157.36 43.9861 157.242 43.9971C157.017 43.9976 156.794 44.0381 156.582 44.1169C156.366 44.1912 156.163 44.3017 155.981 44.444L155.763 44.08C155.965 43.9038 156.198 43.7693 156.449 43.6838C156.707 43.5925 156.978 43.5458 157.251 43.5456C157.43 43.5323 157.61 43.556 157.781 43.6153C157.952 43.6746 158.109 43.7684 158.244 43.8911C158.362 44.0252 158.452 44.1825 158.509 44.3534C158.567 44.5244 158.59 44.7056 158.578 44.8862V46.6277C158.555 46.9879 158.668 47.3434 158.895 47.6182L158.578 47.8946C158.482 47.8188 158.396 47.7288 158.324 47.6274ZM157.772 47.1667C157.876 47.0635 157.958 46.9388 158.012 46.8007C158.067 46.6626 158.093 46.5142 158.088 46.3651V45.7431H157.26C156.92 45.7145 156.579 45.7847 156.275 45.9458C156.174 46.021 156.093 46.1221 156.041 46.2392C155.988 46.3562 155.966 46.4853 155.976 46.6139C155.968 46.7328 155.986 46.852 156.029 46.9628C156.071 47.0737 156.137 47.1732 156.222 47.2542C156.414 47.4128 156.657 47.4916 156.903 47.4754C157.221 47.4921 157.533 47.3797 157.772 47.1621V47.1667Z" fill="#1D1D1D"/>
<path d="M160.873 44.1307H159.336V43.67H162.9V44.1307H161.358V47.8163H160.873V44.1307Z" fill="#1D1D1D"/>
<path d="M164.357 47.6274C163.895 47.3368 163.56 46.8741 163.419 46.3349C163.278 45.7956 163.342 45.221 163.599 44.7296C163.777 44.3938 164.038 44.1137 164.357 43.9188C164.724 43.692 165.141 43.5637 165.569 43.5456V42.1957H166.05V43.541C166.454 43.5621 166.848 43.677 167.204 43.8773C167.53 44.065 167.805 44.3362 168.001 44.6651C168.189 44.992 168.288 45.3652 168.288 45.7455C168.288 46.1257 168.189 46.4989 168.001 46.8258C167.808 47.1652 167.533 47.4475 167.204 47.6458C166.855 47.8602 166.459 47.9776 166.054 47.9868V49.3228H165.573V47.996C165.144 47.98 164.726 47.8533 164.357 47.6274ZM164.62 44.3196C164.372 44.4761 164.167 44.6968 164.027 44.96C163.897 45.2089 163.829 45.4878 163.831 45.7708C163.829 46.0509 163.897 46.3268 164.027 46.5724C164.166 46.8351 164.371 47.0546 164.62 47.2082C164.91 47.3821 165.234 47.486 165.569 47.5122V44.0017C165.233 44.0292 164.908 44.1381 164.62 44.3196ZM167.008 47.2036C167.257 47.0454 167.463 46.8232 167.605 46.5586C167.736 46.3141 167.805 46.039 167.805 45.7593C167.805 45.4795 167.736 45.2044 167.605 44.96C167.461 44.6976 167.256 44.4773 167.008 44.3196C166.716 44.1413 166.388 44.0357 166.05 44.0109V47.5261C166.386 47.4996 166.713 47.3974 167.008 47.2266V47.2036Z" fill="#1D1D1D"/>
<path d="M169.912 47.6412C169.614 47.4613 169.372 47.1957 169.217 46.8765C169.046 46.5321 168.96 46.1489 168.968 45.7616C168.962 45.3725 169.049 44.9879 169.222 44.6421C169.38 44.3215 169.623 44.0534 169.921 43.8681C170.229 43.6772 170.583 43.5798 170.941 43.587C171.292 43.5823 171.638 43.6779 171.94 43.8632C172.242 44.0486 172.488 44.3165 172.652 44.6374C172.816 44.9846 172.902 45.3659 172.902 45.7523C172.902 46.1388 172.816 46.5201 172.652 46.8672C172.488 47.1896 172.24 47.4585 171.936 47.6439C171.632 47.8293 171.285 47.9241 170.933 47.9176C170.574 47.9243 170.221 47.8287 169.912 47.6412ZM172.015 46.9916C172.297 46.6464 172.442 46.2036 172.421 45.7523C172.427 45.4434 172.363 45.1373 172.233 44.8586C172.122 44.6081 171.94 44.398 171.712 44.2551C171.481 44.1075 171.213 44.0323 170.941 44.0385C170.665 44.0312 170.393 44.1063 170.157 44.2551C169.93 44.4025 169.748 44.6155 169.636 44.8678C169.508 45.1468 169.444 45.4527 169.449 45.7616C169.443 46.0675 169.508 46.3705 169.636 46.6461C169.75 46.895 169.931 47.1046 170.157 47.2496C170.393 47.3997 170.665 47.4765 170.941 47.4708C171.144 47.4783 171.345 47.4392 171.53 47.3563C171.716 47.2734 171.882 47.1489 172.015 46.9916Z" fill="#1D1D1D"/>
<path d="M176.484 43.8911C176.744 44.0879 176.947 44.3538 177.072 44.6605C177.206 45.0029 177.272 45.3693 177.268 45.7385C177.276 46.1282 177.197 46.5145 177.036 46.8672C176.887 47.1856 176.652 47.4527 176.359 47.6366C176.04 47.8317 175.674 47.9291 175.303 47.9176C175.17 47.9176 174.858 47.8808 174.345 47.8117V49.9908H173.9V44.9231C173.915 44.7461 173.892 44.5679 173.834 44.4008C173.775 44.2338 173.682 44.0818 173.561 43.9556L173.882 43.6239C173.985 43.6986 174.075 43.7905 174.149 43.8957C174.233 44.0127 174.296 44.1436 174.336 44.2827C174.456 44.0631 174.634 43.884 174.85 43.7671C175.066 43.6502 175.31 43.6004 175.553 43.6239C175.882 43.6122 176.207 43.7054 176.484 43.8911ZM176.404 47.0147C176.672 46.6647 176.808 46.226 176.787 45.78C176.802 45.3439 176.688 44.9133 176.462 44.5453C176.365 44.3921 176.233 44.2665 176.077 44.1803C175.922 44.0941 175.747 44.0501 175.571 44.0523C175.274 44.0499 174.986 44.1541 174.755 44.3472C174.64 44.4359 174.546 44.5494 174.478 44.68C174.41 44.8105 174.371 44.9548 174.363 45.1027V47.4063C174.858 47.4569 175.165 47.4846 175.281 47.4846C175.492 47.498 175.704 47.4629 175.9 47.3816C176.097 47.3003 176.273 47.175 176.417 47.0147H176.404Z" fill="#1D1D1D"/>
<path d="M178.502 43.6792H178.974L180.498 47.0285L182.026 43.6792H182.494L182.971 47.8255H182.494L182.133 44.4946L180.698 47.6274H180.297L178.872 44.4946L178.493 47.8255H178.048L178.502 43.6792Z" fill="#1D1D1D"/>
<path d="M186.49 47.6274C186.421 47.5031 186.364 47.3719 186.321 47.2358C186.213 47.4498 186.046 47.6249 185.84 47.738C185.601 47.864 185.336 47.9257 185.069 47.9177C184.7 47.9376 184.337 47.8125 184.053 47.5675C183.925 47.4485 183.825 47.3016 183.758 47.1375C183.692 46.9734 183.662 46.7961 183.67 46.6185C183.662 46.4299 183.699 46.2421 183.776 46.0713C183.854 45.9004 183.97 45.7515 184.115 45.6372C184.471 45.3814 184.9 45.2579 185.332 45.287H186.267V44.9876C186.287 44.7223 186.212 44.4586 186.058 44.2459C185.974 44.1604 185.873 44.0947 185.763 44.0534C185.652 44.012 185.534 43.9959 185.416 44.0063C185.19 44.0065 184.966 44.047 184.753 44.1261C184.536 44.2004 184.333 44.3109 184.151 44.4532L183.933 44.0892C184.137 43.913 184.371 43.7785 184.623 43.693C184.88 43.6013 185.149 43.5546 185.421 43.5548C185.6 43.5415 185.781 43.5652 185.951 43.6245C186.122 43.6838 186.279 43.7776 186.414 43.9003C186.533 44.0342 186.623 44.1913 186.682 44.3623C186.74 44.5332 186.764 44.7146 186.753 44.8954V46.6369C186.728 46.9965 186.84 47.3519 187.065 47.6274L186.753 47.9038C186.652 47.8269 186.563 47.7336 186.49 47.6274ZM185.938 47.1667C186.042 47.0635 186.124 46.9388 186.178 46.8007C186.233 46.6626 186.259 46.5142 186.254 46.3651V45.7431H185.434C185.094 45.7145 184.753 45.7847 184.45 45.9458C184.348 46.021 184.268 46.1221 184.215 46.2392C184.163 46.3562 184.141 46.4853 184.151 46.6139C184.144 46.7327 184.162 46.8516 184.205 46.9623C184.247 47.073 184.312 47.1726 184.396 47.2542C184.589 47.4128 184.832 47.4916 185.078 47.4754C185.393 47.4897 185.701 47.3774 185.938 47.1621V47.1667Z" fill="#1D1D1D"/>
</g>
<defs>
<clipPath id="clip0_460_80">
<rect width="189.796" height="50" fill="white"/>
</clipPath>
</defs>
</svg>
