<svg width="50" height="70" viewBox="0 0 50 70" fill="none" xmlns="http://www.w3.org/2000/svg">
<path fill-rule="evenodd" clip-rule="evenodd" d="M50 50.9091L50 0L-3.8147e-06 -2.18557e-06L-6.04e-06 50.9091L0.101762 50.9091L25 70L49.8982 50.9091L50 50.9091Z" fill="#FF601A"/>
<path d="M37.5 15H35V13C35 11.897 34.103 11 33 11C31.897 11 31 11.897 31 13V15H19V13C19 11.897 18.103 11 17 11C15.897 11 15 11.897 15 13V15H12.5C11.1215 15 10 16.1215 10 17.5V38.5C10 39.8785 11.1215 41 12.5 41H37.5C38.8785 41 40 39.8785 40 38.5V17.5C40 16.1215 38.8785 15 37.5 15ZM32 13C32 12.4485 32.4485 12 33 12C33.5515 12 34 12.4485 34 13V17C34 17.5515 33.5515 18 33 18C32.4485 18 32 17.5515 32 17V13ZM16 13C16 12.4485 16.4485 12 17 12C17.5515 12 18 12.4485 18 13V17C18 17.5515 17.5515 18 17 18C16.4485 18 16 17.5515 16 17V13ZM12.5 16H15V17C15 18.103 15.897 19 17 19C18.103 19 19 18.103 19 17V16H31V17C31 18.103 31.897 19 33 19C34.103 19 35 18.103 35 17V16H37.5C38.327 16 39 16.673 39 17.5V21H11V17.5C11 16.673 11.673 16 12.5 16ZM37.5 40H12.5C11.673 40 11 39.327 11 38.5V22H39V38.5C39 39.327 38.327 40 37.5 40Z" fill="white"/>
<path d="M25.5 19H24.5V20H25.5V19Z" fill="white"/>
<path d="M27.5 19H26.5V20H27.5V19Z" fill="white"/>
<path d="M23.5 19H22.5V20H23.5V19Z" fill="white"/>
<path d="M24.5 38.0001C21.301 38.0001 18.5365 35.8046 17.742 32.7746L19.842 33.4746L20.1585 32.5261L17.1585 31.5261C16.9785 31.4661 16.7805 31.5131 16.647 31.6471L14.647 33.6471L15.354 34.3541L16.755 32.9531C17.6365 36.4551 20.817 39.0001 24.5 39.0001C28.488 39.0001 31.893 36.0191 32.4215 32.0661L31.4305 31.9336C30.968 35.3921 27.989 38.0001 24.5 38.0001Z" fill="white"/>
<path d="M32.2456 29.0475C31.3636 25.545 28.1831 23 24.5001 23C20.5121 23 17.1071 25.981 16.5786 29.934L17.5696 30.0665C18.0321 26.608 21.0111 24 24.5001 24C27.6991 24 30.4636 26.1955 31.2581 29.2255L29.1581 28.5255L28.8416 29.474L31.8416 30.474C31.8936 30.4915 31.9476 30.5 32.0001 30.5C32.1306 30.5 32.2586 30.4485 32.3536 30.3535L34.3536 28.3535L33.6466 27.6465L32.2456 29.0475Z" fill="white"/>
<path d="M24.3535 33.3535L27.8535 29.8535L27.1465 29.1465L24 32.293L22.8535 31.1465L22.1465 31.8535L23.6465 33.3535C23.744 33.451 23.872 33.5 24 33.5C24.128 33.5 24.256 33.451 24.3535 33.3535Z" fill="white"/>
</svg>
