<svg width="50" height="70" viewBox="0 0 50 70" fill="none" xmlns="http://www.w3.org/2000/svg">
<path fill-rule="evenodd" clip-rule="evenodd" d="M50 50.9091L50 0L-3.8147e-06 -2.18557e-06L-6.04e-06 50.9091L0.101762 50.9091L25 70L49.8982 50.9091L50 50.9091Z" fill="#FF601A"/>
<g clip-path="url(#clip0_816_3)">
<path fill-rule="evenodd" clip-rule="evenodd" d="M13.263 21.375C11.9088 21.375 10.8157 22.5475 10.8157 24C10.8157 25.4525 11.9088 26.625 13.263 26.625C14.6173 26.625 15.7104 25.4525 15.7104 24C15.7104 22.5475 14.6173 21.375 13.263 21.375ZM13.263 10.875C11.9088 10.875 10.8157 12.0475 10.8157 13.5C10.8157 14.9525 11.9088 16.125 13.263 16.125C14.6173 16.125 15.7104 14.9525 15.7104 13.5C15.7104 12.0475 14.6173 10.875 13.263 10.875ZM13.263 31.875C11.9088 31.875 10.8157 33.065 10.8157 34.5C10.8157 35.935 11.9251 37.125 13.263 37.125C14.6009 37.125 15.7104 35.935 15.7104 34.5C15.7104 33.065 14.6173 31.875 13.263 31.875ZM19.7894 36.25H39.3683C40.2657 36.25 40.9999 35.4625 40.9999 34.5C40.9999 33.5375 40.2657 32.75 39.3683 32.75H19.7894C18.892 32.75 18.1578 33.5375 18.1578 34.5C18.1578 35.4625 18.892 36.25 19.7894 36.25ZM19.7894 25.75H39.3683C40.2657 25.75 40.9999 24.9625 40.9999 24C40.9999 23.0375 40.2657 22.25 39.3683 22.25H19.7894C18.892 22.25 18.1578 23.0375 18.1578 24C18.1578 24.9625 18.892 25.75 19.7894 25.75ZM18.1578 13.5C18.1578 14.4625 18.892 15.25 19.7894 15.25H39.3683C40.2657 15.25 40.9999 14.4625 40.9999 13.5C40.9999 12.5375 40.2657 11.75 39.3683 11.75H19.7894C18.892 11.75 18.1578 12.5375 18.1578 13.5Z" fill="white"/>
</g>
<defs>
<clipPath id="clip0_816_3">
<rect width="31" height="28" fill="white" transform="translate(10 10)"/>
</clipPath>
</defs>
</svg>
