<svg width="50" height="70" viewBox="0 0 50 70" fill="none" xmlns="http://www.w3.org/2000/svg">
<path fill-rule="evenodd" clip-rule="evenodd" d="M50 50.9091L50 0L-3.8147e-06 -2.18557e-06L-6.04e-06 50.9091L0.101762 50.9091L25 70L49.8982 50.9091L50 50.9091Z" fill="#FF601A"/>
<g clip-path="url(#clip0_816_8)">
<path d="M10.3347 39.3313C10.1587 39.3306 9.98435 39.3648 9.82162 39.4318C9.6589 39.4988 9.51106 39.5974 9.38662 39.7218C9.26218 39.8463 9.1636 39.9941 9.09658 40.1568C9.02955 40.3196 8.99541 40.4939 8.9961 40.6699C8.99671 40.8451 9.03182 41.0184 9.09942 41.18C9.16703 41.3415 9.26581 41.4882 9.39012 41.6116C9.51443 41.735 9.66183 41.8327 9.82391 41.8991C9.98599 41.9655 10.1596 41.9993 10.3347 41.9986H39.6654C39.8406 41.9993 40.0141 41.9655 40.1762 41.8991C40.3383 41.8327 40.4857 41.735 40.61 41.6116C40.7343 41.4882 40.833 41.3415 40.9007 41.18C40.9683 41.0184 41.0034 40.8451 41.004 40.6699C41.0047 40.4939 40.9705 40.3196 40.9035 40.1568C40.8365 39.9941 40.7379 39.8463 40.6135 39.7218C40.489 39.5974 40.3412 39.4988 40.1785 39.4318C40.0158 39.3648 39.8414 39.3306 39.6654 39.3313H10.3347Z" fill="white"/>
<path d="M13 41.4986L13.0019 41.4986L18.3355 41.4986C18.5553 41.4977 18.7658 41.4099 18.9212 41.2545C19.0766 41.0991 19.1643 40.8887 19.1653 40.669L13 41.4986ZM13 41.4986C12.8905 41.4991 12.782 41.4779 12.6807 41.4364C12.5794 41.3949 12.4873 41.3338 12.4096 41.2567L12.0586 41.6103M13 41.4986L12.0586 41.6103M12.0586 41.6103L12.4096 41.2567C12.3319 41.1796 12.2702 41.0879 12.2279 40.9869C12.1858 40.8862 12.1638 40.7781 12.1633 40.6689L12.0586 41.6103Z" stroke="white"/>
<path d="M21.0039 40.67C21.0052 41.022 21.1455 41.3592 21.3945 41.6081C21.6434 41.857 21.9806 41.9974 22.3326 41.9987M21.0039 40.67H21.5039V40.669M21.0039 40.67V28.6621C21.0039 26.9122 22.453 25.4633 24.2027 25.4633H25.7972C27.547 25.4633 28.996 26.9122 28.996 28.6621V40.67M21.0039 40.67L21.5039 40.6682C21.5039 40.6684 21.5039 40.6687 21.5039 40.669M21.5039 40.669C21.5049 40.8887 21.5926 41.0992 21.748 41.2546C21.9034 41.4099 22.1138 41.4977 22.3335 41.4987M21.5039 40.669V28.6621C21.5039 27.1884 22.7291 25.9633 24.2027 25.9633H25.7972C27.2708 25.9633 28.496 27.1884 28.496 28.6621V40.669M22.3335 41.4987H22.3326V41.9987M22.3335 41.4987C22.3338 41.4987 22.3341 41.4987 22.3344 41.4987L22.3326 41.9987M22.3335 41.4987H27.6665M22.3326 41.9987H27.6673M27.6673 41.9987L27.6655 41.4987C27.6658 41.4987 27.6662 41.4987 27.6665 41.4987M27.6673 41.9987V41.4987H27.6665M27.6673 41.9987C28.0193 41.9974 28.3566 41.857 28.6055 41.6081C28.8544 41.3592 28.9948 41.022 28.996 40.67M27.6665 41.4987C27.8862 41.4977 28.0966 41.4099 28.2519 41.2546C28.4073 41.0992 28.495 40.8887 28.496 40.669M28.996 40.67H28.496V40.669M28.996 40.67L28.496 40.6682C28.496 40.6685 28.496 40.6687 28.496 40.669" stroke="white"/>
<path d="M31.6635 41.9987H36.9981C37.1733 41.9993 37.3468 41.9655 37.5089 41.8991M31.6635 41.9987L31.6653 41.4987C31.6649 41.4987 31.6646 41.4987 31.6643 41.4987M31.6635 41.9987C31.3115 41.9974 30.9742 41.857 30.7253 41.6081C30.4764 41.3592 30.336 41.022 30.3347 40.6699M31.6635 41.9987V41.4987H31.6643M31.6643 41.4987H36.9981H37.0001C37.1095 41.4991 37.218 41.4779 37.3193 41.4364L37.5089 41.8991M31.6643 41.4987C31.4446 41.4976 31.2342 41.4099 31.0788 41.2546C30.9234 41.0992 30.8357 40.8887 30.8347 40.6689M37.5089 41.8991L37.3193 41.4364C37.4206 41.3949 37.5127 41.3339 37.5904 41.2567L37.9427 41.6116M37.5089 41.8991C37.671 41.8327 37.8184 41.735 37.9427 41.6116M37.9427 41.6116L37.5904 41.2567C37.6681 41.1796 37.7299 41.0879 37.7721 40.9869C37.8143 40.8862 37.8362 40.7782 37.8367 40.669M37.9427 41.6116C38.067 41.4882 38.1658 41.3415 38.2334 41.18C38.301 41.0184 38.3361 40.8451 38.3367 40.6699M37.8367 40.669V24.666C37.8367 23.1943 36.6037 21.9672 35.1281 21.9672H33.5336C32.0599 21.9672 30.8347 23.1923 30.8347 24.666V40.6689M37.8367 40.669C37.8367 40.6687 37.8367 40.6684 37.8367 40.6682L38.3367 40.6699M37.8367 40.669V40.6699H38.3367M38.3367 40.6699V24.666C38.3367 22.9162 36.8778 21.4672 35.1281 21.4672H33.5336C31.7838 21.4672 30.3347 22.9162 30.3347 24.666V40.6699M30.3347 40.6699L30.8347 40.6682C30.8347 40.6684 30.8347 40.6687 30.8347 40.6689M30.3347 40.6699H30.8347V40.6689" stroke="white"/>
<path d="M32.2846 10.0012C31.9323 10.0019 31.5947 10.142 31.3453 10.3908C31.096 10.6397 30.9552 10.9771 30.9539 11.3293C30.9532 11.5047 30.9871 11.6784 31.0536 11.8406C31.1202 12.0028 31.218 12.1503 31.3416 12.2746C31.4652 12.3989 31.6121 12.4977 31.774 12.5652C31.9358 12.6326 32.1093 12.6675 32.2846 12.6679H33.6622C26.1212 19.1512 18.2253 23.1786 10.0893 24.6861C9.74246 24.7518 9.43584 24.9524 9.23667 25.2438C9.0375 25.5353 8.96202 25.8938 9.02679 26.2408C9.09021 26.5874 9.28823 26.8948 9.57759 27.0958C9.86695 27.2969 10.2241 27.3752 10.5711 27.3137C19.3313 25.6905 27.7601 21.3376 35.67 14.4726V16.0429C35.6693 16.218 35.7031 16.3915 35.7695 16.5535C35.8359 16.7156 35.9335 16.8629 36.0569 16.9872C36.1802 17.1115 36.3268 17.2103 36.4883 17.2779C36.6498 17.3456 36.823 17.3807 36.9981 17.3814C37.1741 17.3821 37.3485 17.348 37.5112 17.2809C37.6739 17.2139 37.8217 17.1153 37.9462 16.9909C38.0706 16.8665 38.1692 16.7186 38.2362 16.5559C38.3032 16.3932 38.3374 16.2189 38.3367 16.0429V12.1158C38.3369 10.965 37.3625 10.001 36.2117 10.0012H32.2846Z" fill="white"/>
</g>
<defs>
<clipPath id="clip0_816_8">
<rect width="32" height="32" fill="white" transform="translate(9 10)"/>
</clipPath>
</defs>
</svg>
