<svg width="50" height="70" viewBox="0 0 50 70" fill="none" xmlns="http://www.w3.org/2000/svg">
<path fill-rule="evenodd" clip-rule="evenodd" d="M50 50.9091L50 0L-3.8147e-06 -2.18557e-06L-6.04e-06 50.9091L0.101762 50.9091L25 70L49.8982 50.9091L50 50.9091Z" fill="#FF601A"/>
<path d="M29.1156 38.9724H16.6843C16.4978 38.9724 16.319 38.8983 16.1871 38.7665C16.0553 38.6346 15.9812 38.4558 15.9812 38.2693C15.9812 38.0828 16.0553 37.904 16.1871 37.7721C16.319 37.6402 16.4978 37.5662 16.6843 37.5662H29.1156C29.3021 37.5662 29.4809 37.6402 29.6128 37.7721C29.7446 37.904 29.8187 38.0828 29.8187 38.2693C29.8187 38.4558 29.7446 38.6346 29.6128 38.7665C29.4809 38.8983 29.3021 38.9724 29.1156 38.9724Z" fill="white"/>
<path d="M29.1156 34.5353H16.6843C16.4978 34.5353 16.319 34.4612 16.1871 34.3293C16.0553 34.1975 15.9812 34.0186 15.9812 33.8322C15.9812 33.6457 16.0553 33.4668 16.1871 33.335C16.319 33.2031 16.4978 33.129 16.6843 33.129H29.1156C29.3021 33.129 29.4809 33.2031 29.6128 33.335C29.7446 33.4668 29.8187 33.6457 29.8187 33.8322C29.8187 34.0186 29.7446 34.1975 29.6128 34.3293C29.4809 34.4612 29.3021 34.5353 29.1156 34.5353Z" fill="white"/>
<path d="M29.1156 30.0984H16.6843C16.4978 30.0984 16.319 30.0243 16.1871 29.8924C16.0553 29.7606 15.9812 29.5817 15.9812 29.3953C15.9812 29.2088 16.0553 29.0299 16.1871 28.8981C16.319 28.7662 16.4978 28.6921 16.6843 28.6921H29.1156C29.3021 28.6921 29.4809 28.7662 29.6128 28.8981C29.7446 29.0299 29.8187 29.2088 29.8187 29.3953C29.8187 29.5817 29.7446 29.7606 29.6128 29.8924C29.4809 30.0243 29.3021 30.0984 29.1156 30.0984Z" fill="white"/>
<path d="M29.1156 25.6611H16.6843C16.4978 25.6611 16.319 25.5871 16.1871 25.4552C16.0553 25.3233 15.9812 25.1445 15.9812 24.958C15.9812 24.7715 16.0553 24.5927 16.1871 24.4608C16.319 24.329 16.4978 24.2549 16.6843 24.2549H29.1156C29.3021 24.2549 29.4809 24.329 29.6128 24.4608C29.7446 24.5927 29.8187 24.7715 29.8187 24.958C29.8187 25.1445 29.7446 25.3233 29.6128 25.4552C29.4809 25.5871 29.3021 25.6611 29.1156 25.6611Z" fill="white"/>
<path d="M24.6195 21.2227H16.6846C16.4981 21.2227 16.3192 21.1486 16.1874 21.0167C16.0555 20.8849 15.9814 20.706 15.9814 20.5195C15.9814 20.3331 16.0555 20.1542 16.1874 20.0223C16.3192 19.8905 16.4981 19.8164 16.6846 19.8164H24.6195C24.806 19.8164 24.9848 19.8905 25.1167 20.0223C25.2485 20.1542 25.3226 20.3331 25.3226 20.5195C25.3226 20.706 25.2485 20.8849 25.1167 21.0167C24.9848 21.1486 24.806 21.2227 24.6195 21.2227Z" fill="white"/>
<path d="M24.6195 15.1775H16.6846C16.4981 15.1775 16.3192 15.1034 16.1874 14.9715C16.0555 14.8397 15.9814 14.6608 15.9814 14.4744C15.9814 14.2879 16.0555 14.109 16.1874 13.9772C16.3192 13.8453 16.4981 13.7712 16.6846 13.7712H24.6195C24.806 13.7712 24.9848 13.8453 25.1167 13.9772C25.2485 14.109 25.3226 14.2879 25.3226 14.4744C25.3226 14.6608 25.2485 14.8397 25.1167 14.9715C24.9848 15.1034 24.806 15.1775 24.6195 15.1775Z" fill="white"/>
<path d="M38.6078 16.7985H38.1712V16.3625C38.1712 16.2693 38.1341 16.1799 38.0682 16.114C38.0023 16.048 37.9128 16.011 37.8196 16.011C37.7264 16.011 37.6369 16.048 37.571 16.114C37.5051 16.1799 37.468 16.2693 37.468 16.3625V16.7985H37.0312C36.938 16.7985 36.8486 16.8355 36.7827 16.9015C36.7167 16.9674 36.6797 17.0568 36.6797 17.15C36.6797 17.2433 36.7167 17.3327 36.7827 17.3986C36.8486 17.4646 36.938 17.5016 37.0312 17.5016H37.468V17.9375C37.468 18.0308 37.5051 18.1202 37.571 18.1861C37.6369 18.2521 37.7264 18.2891 37.8196 18.2891C37.9128 18.2891 38.0023 18.2521 38.0682 18.1861C38.1341 18.1202 38.1712 18.0308 38.1712 17.9375V17.5016H38.6078C38.701 17.5016 38.7905 17.4646 38.8564 17.3986C38.9223 17.3327 38.9594 17.2433 38.9594 17.15C38.9594 17.0568 38.9223 16.9674 38.8564 16.9015C38.7905 16.8355 38.701 16.7985 38.6078 16.7985Z" fill="white"/>
<path d="M41.6305 19.1971C41.6253 17.6094 41.0346 16.0795 39.9717 14.9001C38.9088 13.7208 37.4482 12.975 35.8696 12.8054V12.126C35.8694 11.7282 35.7114 11.3468 35.4302 11.0654C35.1491 10.784 34.7678 10.6256 34.37 10.625H14.8705C14.4725 10.6253 14.091 10.7836 13.8096 11.065C13.5281 11.3464 13.3699 11.728 13.3696 12.126V42.874C13.3699 43.2719 13.5281 43.6535 13.8096 43.935C14.091 44.2164 14.4725 44.3747 14.8705 44.375H34.37C34.7678 44.3744 35.1491 44.216 35.4302 43.9346C35.7114 43.6532 35.8694 43.2718 35.8696 42.874V25.59C37.4483 25.4201 38.9089 24.674 39.9718 23.4945C41.0347 22.3149 41.6253 20.7849 41.6305 19.1971ZM14.7759 42.874L14.8705 12.0312L34.4634 12.126V12.8054C32.8824 12.9692 31.4181 13.7131 30.3535 14.8933C29.2889 16.0736 28.6994 17.6066 28.699 19.196C28.6986 20.7855 29.2872 22.3188 30.3512 23.4996C31.4152 24.6805 32.8791 25.4251 34.46 25.5897L34.37 42.9688L14.7759 42.874ZM35.1665 24.2552C34.1663 24.2551 33.1887 23.9584 32.3571 23.4027C31.5256 22.847 30.8775 22.0572 30.4948 21.1331C30.1121 20.2091 30.012 19.1923 30.2071 18.2114C30.4022 17.2304 30.8839 16.3294 31.5911 15.6222C32.2983 14.9149 33.1993 14.4333 34.1802 14.2381C35.1612 14.043 36.1779 14.143 37.102 14.5257C38.0261 14.9084 38.8159 15.5565 39.3716 16.388C39.9274 17.2195 40.2241 18.1972 40.2242 19.1974C40.2229 20.5383 39.6896 21.824 38.7414 22.7722C37.7932 23.7204 36.5075 24.254 35.1665 24.2552Z" fill="white"/>
<path d="M35.5956 16.8659C35.5813 16.8355 35.5637 16.8066 35.5431 16.78C35.5291 16.7567 35.513 16.7346 35.4952 16.7141C35.4738 16.6954 35.4507 16.6787 35.4263 16.6643C35.4008 16.6448 35.3733 16.628 35.3443 16.6142L35.3264 16.6033C35.3048 16.5984 35.2829 16.5952 35.2609 16.5934C35.23 16.5854 35.1984 16.5807 35.1665 16.5793C35.1133 16.5874 35.0601 16.5953 35.0069 16.6033L34.9892 16.6141C34.8799 16.668 34.7915 16.7565 34.7378 16.8659L34.7281 16.8828L33.1612 21.1883C33.1188 21.3048 33.1245 21.4333 33.1768 21.5456C33.2292 21.6579 33.3241 21.7447 33.4405 21.7871C33.5569 21.8295 33.6854 21.8239 33.7977 21.7715C33.91 21.7191 33.9969 21.6243 34.0393 21.5078L34.4552 20.365H35.8794L36.2953 21.5078C36.3377 21.6243 36.4246 21.7191 36.5369 21.7715C36.6492 21.8239 36.7777 21.8295 36.8941 21.7871C37.0105 21.7447 37.1054 21.6579 37.1578 21.5456C37.2101 21.4333 37.2158 21.3048 37.1734 21.1883L35.6057 16.8828L35.5956 16.8659ZM34.795 19.4302L35.1667 18.4085L35.5386 19.4302H34.795Z" fill="white"/>
</svg>
