<svg width="50" height="70" viewBox="0 0 50 70" fill="none" xmlns="http://www.w3.org/2000/svg">
<path fill-rule="evenodd" clip-rule="evenodd" d="M50 50.9091L50 0L-3.8147e-06 -2.18557e-06L-6.04e-06 50.9091L0.101762 50.9091L25 70L49.8982 50.9091L50 50.9091Z" fill="#FF601A"/>
<g clip-path="url(#clip0_816_7)">
<path d="M9.53611 26.5361C9.83056 26.5361 10.0695 26.2976 10.0695 26.0027C10.0695 17.7672 16.7698 11.0668 25.0054 11.0668C28.3803 11.0668 31.6081 12.195 34.2346 14.2674H31.4064C31.112 14.2674 30.873 14.5058 30.873 14.8008C30.873 15.0958 31.112 15.3342 31.4064 15.3342H35.6285C35.6637 15.3374 35.6967 15.338 35.7314 15.3342H36.2067V10.5334C36.2067 10.2384 35.9677 10 35.6733 10C35.3788 10 35.1398 10.2384 35.1398 10.5334V13.6326C32.2828 11.2845 28.7292 10 25.0054 10C16.1815 10 9.00269 17.1788 9.00269 26.0027C9.00269 26.2976 9.24166 26.5361 9.53611 26.5361Z" fill="white"/>
<path d="M25.0053 14.2673C18.5344 14.2673 13.27 19.5317 13.27 26.0026C13.27 32.4736 18.5344 37.7379 25.0053 37.7379C31.4763 37.7379 36.7406 32.4736 36.7406 26.0026C36.7406 19.5317 31.4763 14.2673 25.0053 14.2673ZM25.0053 36.6711C19.1227 36.6711 14.3369 31.8852 14.3369 26.0026C14.3369 20.12 19.1227 15.3342 25.0053 15.3342C30.8879 15.3342 35.6738 20.12 35.6738 26.0026C35.6738 31.8852 30.8879 36.6711 25.0053 36.6711Z" fill="white"/>
<path d="M25.0053 18.0014C25.2998 18.0014 25.5388 17.7629 25.5388 17.4679V16.4011C25.5388 16.1061 25.2998 15.8677 25.0053 15.8677C24.7109 15.8677 24.4719 16.1061 24.4719 16.4011V17.4679C24.4719 17.7629 24.7109 18.0014 25.0053 18.0014Z" fill="white"/>
<path d="M25.0053 34.004C24.7109 34.004 24.4719 34.2425 24.4719 34.5375V35.6043C24.4719 35.8993 24.7109 36.1377 25.0053 36.1377C25.2998 36.1377 25.5388 35.8993 25.5388 35.6043V34.5375C25.5388 34.2425 25.2998 34.004 25.0053 34.004Z" fill="white"/>
<path d="M33.54 26.5361H34.6069C34.9013 26.5361 35.1403 26.2976 35.1403 26.0027C35.1403 25.7077 34.9013 25.4692 34.6069 25.4692H33.54C33.2456 25.4692 33.0066 25.7077 33.0066 26.0027C33.0066 26.2976 33.2456 26.5361 33.54 26.5361Z" fill="white"/>
<path d="M16.4706 25.4692H15.4038C15.1093 25.4692 14.8704 25.7077 14.8704 26.0027C14.8704 26.2976 15.1093 26.5361 15.4038 26.5361H16.4706C16.7651 26.5361 17.0041 26.2976 17.0041 26.0027C17.0041 25.7077 16.7651 25.4692 16.4706 25.4692Z" fill="white"/>
<path d="M25.5389 23.4113V20.6684C25.5389 20.3734 25.2999 20.135 25.0054 20.135C24.711 20.135 24.472 20.3734 24.472 20.6684V23.4113C23.5545 23.6497 22.8718 24.4776 22.8718 25.4692C22.8718 25.864 22.9864 26.2288 23.1742 26.5462L18.7607 30.9597C18.5521 31.1683 18.5521 31.5054 18.7607 31.714C18.8647 31.818 19.0012 31.8703 19.1378 31.8703C19.2744 31.8703 19.4109 31.818 19.5149 31.714L23.9285 27.3005C24.2459 27.4882 24.6107 27.6029 25.0054 27.6029C26.1822 27.6029 27.1391 26.646 27.1391 25.4692C27.1391 24.4776 26.4564 23.6497 25.5389 23.4113ZM25.0054 26.5361C24.4171 26.5361 23.9386 26.0576 23.9386 25.4692C23.9386 24.8809 24.4171 24.4024 25.0054 24.4024C25.5938 24.4024 26.0723 24.8809 26.0723 25.4692C26.0723 26.0576 25.5938 26.5361 25.0054 26.5361Z" fill="white"/>
<path d="M15.3445 38.09C15.1685 38.3241 15.2165 38.6602 15.4565 38.8362C15.5472 38.9056 15.6592 38.9376 15.7713 38.9376C15.9366 38.9376 16.0967 38.8682 16.2033 38.7242C16.374 38.49 16.326 38.154 16.0913 37.978C15.8566 37.8019 15.5211 37.8499 15.3445 38.09Z" fill="white"/>
<path d="M12.8593 34.6814C12.6886 34.4473 12.3526 34.3881 12.1125 34.5593C11.8725 34.7353 11.8192 35.066 11.9898 35.3056C12.0965 35.4501 12.2566 35.5296 12.4273 35.5296C12.5339 35.5296 12.6406 35.4976 12.7366 35.4288C12.9761 35.2575 13.03 34.9215 12.8593 34.6814Z" fill="white"/>
<path d="M13.0667 35.8442C12.848 36.0411 12.8267 36.3777 13.024 36.5958C13.1254 36.7185 13.2747 36.7777 13.4241 36.7777C13.5468 36.7777 13.6748 36.7351 13.7762 36.6444C13.9949 36.447 14.0162 36.111 13.8188 35.8923C13.6273 35.6682 13.2913 35.6522 13.0667 35.8442Z" fill="white"/>
<path d="M14.9022 36.9912C14.6889 36.7938 14.3475 36.8098 14.1501 37.0237C13.9474 37.2419 13.9634 37.5785 14.1821 37.7812C14.2835 37.8718 14.4115 37.9198 14.5395 37.9198C14.6835 37.9198 14.8276 37.8612 14.9342 37.7491C15.1316 37.5304 15.1209 37.1944 14.9022 36.997C14.9022 36.9912 14.9022 36.9912 14.9022 36.9912Z" fill="white"/>
<path d="M12.0271 33.3852C12.0218 33.3852 12.0218 33.3852 12.0218 33.3852C11.8778 33.1292 11.5524 33.0385 11.2964 33.1879C11.0403 33.3324 10.9496 33.6573 11.099 33.9133C11.195 34.0835 11.3764 34.18 11.5631 34.18C11.6484 34.18 11.7444 34.1587 11.8244 34.1107C12.0805 33.9666 12.1712 33.6407 12.0271 33.3852Z" fill="white"/>
<path d="M40.4426 27.1335C40.4533 27.1335 40.4586 27.1335 40.464 27.1335C40.752 27.1335 40.9867 26.9036 40.9974 26.6214C41.008 26.3222 40.7787 26.0768 40.4853 26.0667C40.1919 26.0555 39.9412 26.2854 39.9305 26.5788C39.9199 26.8721 40.1487 27.1229 40.4426 27.1335Z" fill="white"/>
<path d="M9.6749 28.131C9.96829 28.0985 10.1817 27.8371 10.1496 27.5437C10.1176 27.2503 9.85627 27.037 9.56289 27.069C9.2695 27.0956 9.05613 27.3624 9.08814 27.6504C9.11481 27.9278 9.34952 28.1305 9.61623 28.1305C9.63756 28.131 9.65357 28.131 9.6749 28.131Z" fill="white"/>
<path d="M9.97357 29.6993C10.2616 29.6406 10.4483 29.3579 10.3843 29.0698C10.3256 28.7818 10.0429 28.5945 9.75487 28.6586C9.46682 28.7172 9.28012 29.0005 9.34413 29.2885C9.39214 29.5392 9.61618 29.7099 9.86155 29.7099C9.89836 29.7099 9.93623 29.7099 9.97357 29.6993Z" fill="white"/>
<path d="M11.3283 32.0037C11.211 31.737 10.8963 31.6143 10.6242 31.7317C10.3575 31.849 10.2348 32.1638 10.3522 32.4353C10.4428 32.6326 10.6349 32.7558 10.8429 32.7558C10.9123 32.7558 10.9869 32.7398 11.0563 32.7073C11.3225 32.5905 11.4451 32.2758 11.3283 32.0037Z" fill="white"/>
<path d="M10.7784 30.5634C10.6931 30.2807 10.389 30.126 10.1117 30.2167C9.82895 30.3074 9.67426 30.6061 9.76494 30.8894C9.83962 31.1134 10.0477 31.2569 10.2717 31.2569C10.325 31.2569 10.3837 31.2516 10.4371 31.2356C10.715 31.1449 10.8697 30.8403 10.7784 30.5634Z" fill="white"/>
<path d="M24.7173 40.9332C24.4239 40.9273 24.1785 41.1626 24.1732 41.4554C24.1679 41.7547 24.4026 41.9942 24.6959 42.0001C24.7013 42.0001 24.7066 42.0001 24.7066 42.0001C25 42.0001 25.2347 41.7702 25.24 41.4773C25.2448 41.1839 25.0107 40.9385 24.7173 40.9332Z" fill="white"/>
<path d="M36.81 35.1455C36.6286 35.3749 36.6713 35.7115 36.9007 35.8923C37.002 35.967 37.114 36.0043 37.2314 36.0043C37.3861 36.0043 37.5461 35.935 37.6528 35.7957C37.8342 35.5664 37.7915 35.2303 37.5568 35.0495C37.3221 34.8687 36.9914 34.9108 36.81 35.1455Z" fill="white"/>
<path d="M33.449 38.3141C33.2089 38.4795 33.1449 38.815 33.3156 39.0555C33.417 39.2049 33.5823 39.2849 33.753 39.2849C33.8597 39.2849 33.9611 39.2582 34.0571 39.1942C34.2971 39.0289 34.3611 38.6934 34.1904 38.4528C34.0251 38.2074 33.6949 38.1487 33.449 38.3141Z" fill="white"/>
<path d="M34.6763 37.3747C34.4522 37.5667 34.4256 37.9028 34.6176 38.1268C34.7243 38.2495 34.8736 38.3141 35.023 38.3141C35.1457 38.3141 35.2684 38.2714 35.3697 38.186C35.5937 37.994 35.6204 37.658 35.4284 37.4339C35.2358 37.2099 34.9003 37.1832 34.6763 37.3747Z" fill="white"/>
<path d="M38.4257 33.7048C38.175 33.5501 37.8442 33.6301 37.6896 33.8755C37.5349 34.1262 37.6095 34.4569 37.8602 34.6116C37.9509 34.6655 38.0469 34.6916 38.143 34.6916C38.319 34.6916 38.495 34.6062 38.5964 34.4404C38.7516 34.1907 38.6769 33.8595 38.4257 33.7048Z" fill="white"/>
<path d="M35.8018 36.3137C35.5938 36.5265 35.6044 36.8626 35.8178 37.0658C35.9191 37.1666 36.0525 37.2146 36.1859 37.2146C36.3245 37.2146 36.4686 37.1613 36.5699 37.0493C36.7726 36.8359 36.7673 36.4999 36.5539 36.2972C36.3406 36.0945 36.004 36.1003 35.8018 36.3137Z" fill="white"/>
<path d="M40.3941 27.6611C40.106 27.6189 39.834 27.827 39.7913 28.115C39.7486 28.4084 39.9513 28.6751 40.2447 28.7178C40.2714 28.7231 40.2981 28.7231 40.3194 28.7231C40.5808 28.7231 40.8102 28.5316 40.8475 28.2649C40.8907 27.9763 40.688 27.7037 40.3941 27.6611Z" fill="white"/>
<path d="M40.1439 29.24C39.8559 29.1706 39.5678 29.3467 39.4931 29.6294C39.4238 29.9174 39.5998 30.2055 39.8825 30.2801C39.9252 30.2913 39.9679 30.2961 40.0106 30.2961C40.2506 30.2961 40.4693 30.1308 40.528 29.8907C40.6027 29.6032 40.4261 29.3152 40.1439 29.24Z" fill="white"/>
<path d="M17.3769 38.8368C17.1208 38.688 16.7954 38.7675 16.6461 39.0241C16.4914 39.2748 16.5767 39.6055 16.8274 39.7549C16.9128 39.8082 17.0088 39.8295 17.0995 39.8295C17.2809 39.8295 17.4569 39.7389 17.5582 39.5682C17.7129 39.3169 17.6281 38.9915 17.3769 38.8368Z" fill="white"/>
<path d="M39.7274 30.7875C39.45 30.6867 39.1406 30.8302 39.0446 31.1075C38.9432 31.3855 39.0819 31.6895 39.3593 31.7903C39.418 31.8117 39.482 31.8229 39.5407 31.8229C39.7594 31.8229 39.9674 31.6895 40.0421 31.4708C40.144 31.1924 40.0048 30.8888 39.7274 30.7875Z" fill="white"/>
<path d="M39.1516 32.2811C38.8903 32.1536 38.5649 32.2597 38.4369 32.5264C38.3088 32.7931 38.4209 33.1137 38.6822 33.2412C38.7569 33.2786 38.8369 33.2951 38.9169 33.2951C39.1143 33.2951 39.3063 33.1831 39.397 32.9958C39.525 32.7286 39.4184 32.4091 39.1516 32.2811Z" fill="white"/>
<path d="M23.1758 40.8265C22.8824 40.7891 22.621 40.9966 22.5837 41.2906C22.5463 41.5839 22.7544 41.8507 23.0478 41.8821V41.888C23.0691 41.888 23.0904 41.888 23.1118 41.888C23.3785 41.888 23.6079 41.6906 23.6399 41.4181C23.6772 41.1252 23.4686 40.8633 23.1758 40.8265Z" fill="white"/>
<path d="M20.1726 40.1384C19.8953 40.0419 19.5912 40.1864 19.4952 40.4691C19.3992 40.7465 19.5485 41.0506 19.8259 41.1466C19.8846 41.1626 19.9433 41.1732 20.0019 41.1732C20.2206 41.1732 20.4287 41.0346 20.5034 40.8158C20.5994 40.5331 20.45 40.2291 20.1726 40.1384Z" fill="white"/>
<path d="M21.6554 40.5598C21.3674 40.4957 21.0846 40.6718 21.0153 40.9598C20.9513 41.2479 21.1327 41.5359 21.4154 41.5999C21.458 41.6106 21.4954 41.6106 21.5381 41.6106C21.7781 41.6106 22.0021 41.4452 22.0555 41.1999C22.1243 40.9118 21.9435 40.6238 21.6554 40.5598Z" fill="white"/>
<path d="M18.743 39.5623C18.4709 39.4343 18.1562 39.5511 18.0335 39.8178C17.9108 40.0845 18.0229 40.4051 18.2896 40.5273C18.3642 40.5598 18.4389 40.5753 18.5136 40.5753C18.7163 40.5753 18.9083 40.4633 18.999 40.2664C19.1217 39.9997 19.0097 39.6845 18.743 39.5623Z" fill="white"/>
<path d="M27.7899 40.6771C27.5018 40.7304 27.3098 41.0131 27.3631 41.3012C27.4112 41.5572 27.6405 41.7338 27.8912 41.7338C27.9232 41.7338 27.9552 41.7338 27.9873 41.7279C28.2753 41.6698 28.4673 41.3918 28.414 41.1038C28.3606 40.8104 28.0779 40.6237 27.7899 40.6771Z" fill="white"/>
<path d="M29.2888 40.3144C29.0061 40.3939 28.8461 40.6931 28.9314 40.9753C29.0007 41.2052 29.2141 41.3545 29.4435 41.3545C29.4915 41.3545 29.5448 41.3487 29.5982 41.3332C29.8809 41.2479 30.0409 40.9486 29.9556 40.6664C29.8697 40.389 29.5715 40.229 29.2888 40.3144Z" fill="white"/>
<path d="M30.7451 39.7916C30.473 39.9036 30.345 40.2184 30.457 40.4909C30.5424 40.6936 30.7397 40.8158 30.9478 40.8158C31.0171 40.8158 31.0865 40.8051 31.1558 40.779C31.4279 40.6611 31.5559 40.3517 31.4439 40.0797C31.326 39.8076 31.0171 39.6796 30.7451 39.7916Z" fill="white"/>
<path d="M26.2584 40.8846C25.965 40.9118 25.7463 41.1673 25.773 41.4607C25.7943 41.7386 26.029 41.9515 26.3064 41.9515C26.317 41.9515 26.333 41.9515 26.349 41.9515V41.9461C26.6424 41.9248 26.8611 41.6687 26.8345 41.3754C26.8131 41.0825 26.5523 40.8633 26.2584 40.8846Z" fill="white"/>
<path d="M32.1366 39.1248C31.8752 39.2635 31.7792 39.5889 31.9232 39.8455C32.0192 40.0269 32.2006 40.1277 32.3926 40.1277C32.4779 40.1277 32.5633 40.1063 32.6433 40.0583C32.9047 39.9196 33.0007 39.5943 32.8567 39.3382C32.7185 39.0768 32.3926 38.9808 32.1366 39.1248Z" fill="white"/>
</g>
<defs>
<clipPath id="clip0_816_7">
<rect width="32" height="32" fill="white" transform="translate(9 10)"/>
</clipPath>
</defs>
</svg>
