<svg width="50" height="70" viewBox="0 0 50 70" fill="none" xmlns="http://www.w3.org/2000/svg">
<path fill-rule="evenodd" clip-rule="evenodd" d="M50 50.9091L50 0L-3.8147e-06 -2.18557e-06L-6.04e-06 50.9091L0.101762 50.9091L25 70L49.8982 50.9091L50 50.9091Z" fill="#FF601A"/>
<path d="M25 32C23.8133 32 22.6533 31.6481 21.6666 30.9888C20.6799 30.3295 19.9109 29.3925 19.4567 28.2961C19.0026 27.1997 18.8838 25.9933 19.1153 24.8295C19.3468 23.6656 19.9182 22.5965 20.7574 21.7574C21.5965 20.9182 22.6656 20.3468 23.8295 20.1153C24.9933 19.8838 26.1997 20.0026 27.2961 20.4567C28.3925 20.9109 29.3295 21.6799 29.9888 22.6666C30.6481 23.6533 31 24.8133 31 26C31 27.5913 30.3679 29.1174 29.2426 30.2426C28.1174 31.3679 26.5913 32 25 32ZM25 22C24.2089 22 23.4355 22.2346 22.7777 22.6741C22.1199 23.1136 21.6072 23.7384 21.3045 24.4693C21.0017 25.2002 20.9225 26.0044 21.0769 26.7804C21.2312 27.5563 21.6122 28.269 22.1716 28.8284C22.731 29.3878 23.4437 29.7688 24.2196 29.9231C24.9956 30.0775 25.7998 29.9983 26.5307 29.6955C27.2616 29.3928 27.8864 28.8801 28.3259 28.2223C28.7654 27.5645 29 26.7911 29 26C29 24.9391 28.5786 23.9217 27.8284 23.1716C27.0783 22.4214 26.0609 22 25 22Z" fill="white"/>
<path d="M30 41H20C18.9391 41 17.9217 40.5785 17.1716 39.8284C16.4214 39.0782 16 38.0608 16 36.9999V34.45C16.0018 34.2514 16.0627 34.0578 16.1749 33.894C16.2871 33.7301 16.4455 33.6034 16.63 33.53L20.27 32.0699C20.3934 32.0152 20.5266 31.9861 20.6615 31.9842C20.7965 31.9824 20.9304 32.0078 21.0553 32.0591C21.1801 32.1104 21.2933 32.1864 21.388 32.2826C21.4826 32.3788 21.5569 32.4931 21.6062 32.6188C21.6555 32.7444 21.6789 32.8787 21.6749 33.0137C21.6709 33.1486 21.6396 33.2813 21.583 33.4038C21.5264 33.5263 21.4455 33.6361 21.3453 33.7265C21.2451 33.8169 21.1277 33.8861 21 33.93L18 35.1299V36.9999C18 37.5304 18.2107 38.0391 18.5858 38.4142C18.9609 38.7892 19.4696 38.9999 20 38.9999H30C30.5304 38.9999 31.0391 38.7892 31.4142 38.4142C31.7893 38.0391 32 37.5304 32 36.9999V35.1299L29 33.93C28.7533 33.8318 28.5558 33.6397 28.4508 33.3959C28.3457 33.1521 28.3419 32.8766 28.44 32.6299C28.5381 32.3833 28.7302 32.1857 28.974 32.0807C29.2178 31.9757 29.4933 31.9718 29.74 32.0699L33.38 33.53C33.5645 33.6034 33.7229 33.7301 33.8351 33.894C33.9473 34.0578 34.0082 34.2514 34.01 34.45V36.9999C34.01 37.5261 33.9062 38.047 33.7046 38.533C33.5029 39.019 33.2074 39.4604 32.8349 39.8319C32.4624 40.2035 32.0203 40.4979 31.5338 40.6983C31.0473 40.8988 30.5261 41.0013 30 41Z" fill="white"/>
<path d="M18 21C17.0111 21 16.0444 20.7068 15.2222 20.1573C14.3999 19.6079 13.759 18.8271 13.3806 17.9134C13.0022 16.9998 12.9031 15.9945 13.0961 15.0246C13.289 14.0546 13.7652 13.1637 14.4645 12.4645C15.1637 11.7652 16.0546 11.289 17.0246 11.0961C17.9945 10.9031 18.9998 11.0022 19.9134 11.3806C20.827 11.759 21.6079 12.3999 22.1573 13.2222C22.7068 14.0444 23 15.0111 23 16C23 16.6566 22.8707 17.3068 22.6194 17.9134C22.3681 18.52 21.9998 19.0712 21.5355 19.5355C21.0712 19.9998 20.52 20.3681 19.9134 20.6194C19.3068 20.8707 18.6566 21 18 21ZM18 13C17.4067 13 16.8266 13.1759 16.3333 13.5056C15.8399 13.8352 15.4554 14.3038 15.2284 14.852C15.0013 15.4001 14.9419 16.0033 15.0576 16.5853C15.1734 17.1672 15.4591 17.7018 15.8787 18.1213C16.2982 18.5409 16.8328 18.8266 17.4147 18.9424C17.9967 19.0581 18.5999 18.9987 19.1481 18.7716C19.6962 18.5446 20.1648 18.1601 20.4944 17.6667C20.8241 17.1734 21 16.5933 21 16C21 15.2044 20.6839 14.4413 20.1213 13.8787C19.5587 13.3161 18.7957 13 18 13Z" fill="white"/>
<path d="M17 29.39H14C12.9391 29.39 11.9217 28.9685 11.1716 28.2184C10.4214 27.4682 10 26.4508 10 25.39V23.64C9.99981 23.4397 10.0598 23.244 10.1721 23.0781C10.2844 22.9123 10.4439 22.7841 10.63 22.71L13.82 21.46C14.0629 21.3635 14.334 21.366 14.5751 21.467C14.8162 21.5679 15.0082 21.7592 15.11 22C15.1587 22.1221 15.1829 22.2526 15.1811 22.3841C15.1793 22.5155 15.1516 22.6453 15.0996 22.7661C15.0476 22.8868 14.9723 22.9961 14.878 23.0877C14.7836 23.1794 14.6722 23.2515 14.55 23.3L12 24.32V25.39C12 25.9204 12.2107 26.4291 12.5858 26.8042C12.9609 27.1792 13.4696 27.39 14 27.39H17C17.2652 27.39 17.5196 27.4953 17.7071 27.6828C17.8946 27.8704 18 28.1247 18 28.39C18 28.6552 17.8946 28.9095 17.7071 29.0971C17.5196 29.2846 17.2652 29.39 17 29.39Z" fill="white"/>
<path d="M32 21C31.0111 21 30.0444 20.7068 29.2222 20.1573C28.3999 19.6079 27.759 18.8271 27.3806 17.9134C27.0022 16.9998 26.9031 15.9945 27.0961 15.0246C27.289 14.0546 27.7652 13.1637 28.4645 12.4645C29.1637 11.7652 30.0546 11.289 31.0246 11.0961C31.9945 10.9031 32.9998 11.0022 33.9134 11.3806C34.8271 11.759 35.6079 12.3999 36.1574 13.2222C36.7068 14.0444 37 15.0111 37 16C37 17.3261 36.4732 18.5979 35.5355 19.5355C34.5979 20.4732 33.3261 21 32 21ZM32 13C31.4067 13 30.8266 13.1759 30.3333 13.5056C29.8399 13.8352 29.4554 14.3038 29.2284 14.852C29.0013 15.4001 28.9419 16.0033 29.0576 16.5853C29.1734 17.1672 29.4591 17.7018 29.8787 18.1213C30.2982 18.5409 30.8328 18.8266 31.4147 18.9424C31.9967 19.0581 32.5999 18.9987 33.1481 18.7716C33.6962 18.5446 34.1648 18.1601 34.4944 17.6667C34.8241 17.1734 35 16.5933 35 16C35 15.2044 34.6839 14.4413 34.1213 13.8787C33.5587 13.3161 32.7957 13 32 13Z" fill="white"/>
<path d="M36 29.39H33C32.7348 29.39 32.4804 29.2846 32.2929 29.0971C32.1054 28.9096 32 28.6552 32 28.39C32 28.1248 32.1054 27.8704 32.2929 27.6829C32.4804 27.4953 32.7348 27.39 33 27.39H36C36.5304 27.39 37.0391 27.1793 37.4142 26.8042C37.7893 26.4291 38 25.9204 38 25.39V24.32L35.45 23.32C35.3278 23.2715 35.2164 23.1994 35.122 23.1078C35.0277 23.0162 34.9524 22.9069 34.9004 22.7861C34.8484 22.6654 34.8207 22.5356 34.8189 22.4041C34.8171 22.2726 34.8413 22.1421 34.89 22.02C34.9861 21.7738 35.1757 21.5757 35.4174 21.4689C35.6591 21.3621 35.9333 21.3553 36.18 21.45L39.37 22.7C39.5561 22.7741 39.7156 22.9024 39.8279 23.0682C39.9402 23.234 40.0002 23.4297 40 23.63V25.38C40.0013 25.9061 39.8988 26.4273 39.6984 26.9138C39.498 27.4002 39.2035 27.8424 38.832 28.2149C38.4604 28.5874 38.019 28.8829 37.533 29.0846C37.0471 29.2862 36.5261 29.39 36 29.39Z" fill="white"/>
</svg>
