<svg width="50" height="50" viewBox="0 0 50 50" fill="none" xmlns="http://www.w3.org/2000/svg">
<g clip-path="url(#clip0_492_335)">
<path d="M25 0C18.7688 0 12.8896 2.31875 8.33337 6.4125V2.08333C8.33337 0.93125 7.40003 0 6.25003 0C5.10003 0 4.1667 0.93125 4.1667 2.08333V10.4167C4.1667 12.7146 6.03545 14.5833 8.33337 14.5833H16.6667C17.8167 14.5833 18.75 13.6521 18.75 12.5C18.75 11.3479 17.8167 10.4167 16.6667 10.4167H10.1459C14.0542 6.43125 19.3584 4.16667 25 4.16667C36.4875 4.16667 45.8334 13.5125 45.8334 25C45.8334 36.4875 36.4875 45.8333 25 45.8333C14.1459 45.8333 5.22503 37.6917 4.25212 26.8958C4.15003 25.7521 3.16462 24.9104 1.98962 25.0083C0.843784 25.1125 3.40864e-05 26.125 0.102117 27.2708C1.27087 40.2292 11.975 50 25 50C38.7854 50 50 38.7854 50 25C50 11.2146 38.7854 0 25 0Z" fill="#FF9900"/>
</g>
<defs>
<clipPath id="clip0_492_335">
<rect width="50" height="50" fill="white"/>
</clipPath>
</defs>
</svg>
